<svg width="14" height="12" viewBox="0 0 14 12" fill="none" xmlns="http://www.w3.org/2000/svg">
<path fill-rule="evenodd" clip-rule="evenodd" d="M0.25 1.5C0.25 1.08579 0.585786 0.75 1 0.75H13C13.4142 0.75 13.75 1.08579 13.75 1.5C13.75 1.91421 13.4142 2.25 13 2.25H1C0.585786 2.25 0.25 1.91421 0.25 1.5Z" fill="white"/>
<path fill-rule="evenodd" clip-rule="evenodd" d="M0.25 6C0.25 5.58579 0.585786 5.25 1 5.25H8.5C8.91421 5.25 9.25 5.58579 9.25 6C9.25 6.41421 8.91421 6.75 8.5 6.75H1C0.585786 6.75 0.25 6.41421 0.25 6Z" fill="white"/>
<path fill-rule="evenodd" clip-rule="evenodd" d="M0.25 10.5C0.25 10.0858 0.585786 9.75 1 9.75H11.5C11.9142 9.75 12.25 10.0858 12.25 10.5C12.25 10.9142 11.9142 11.25 11.5 11.25H1C0.585786 11.25 0.25 10.9142 0.25 10.5Z" fill="white"/>
</svg>
