<svg width="14" height="10" viewBox="0 0 14 10" fill="none" xmlns="http://www.w3.org/2000/svg">
<path fill-rule="evenodd" clip-rule="evenodd" d="M0.333496 5.00005C0.333496 4.53981 0.706592 4.16672 1.16683 4.16672H12.8335C13.2937 4.16672 13.6668 4.53981 13.6668 5.00005C13.6668 5.46029 13.2937 5.83338 12.8335 5.83338H1.16683C0.706592 5.83338 0.333496 5.46029 0.333496 5.00005Z" fill="white"/>
<path fill-rule="evenodd" clip-rule="evenodd" d="M13.4227 4.41079C13.7482 4.73623 13.7482 5.26387 13.4227 5.5893L10.0894 8.92264C9.76397 9.24807 9.23633 9.24807 8.91089 8.92264C8.58545 8.5972 8.58546 8.06956 8.91089 7.74413L12.2442 4.41079C12.5697 4.08536 13.0973 4.08536 13.4227 4.41079Z" fill="white"/>
<path fill-rule="evenodd" clip-rule="evenodd" d="M8.91089 1.07745C9.23633 0.752015 9.76397 0.752015 10.0894 1.07745L13.4227 4.41079C13.7482 4.73623 13.7482 5.26387 13.4227 5.5893C13.0973 5.91474 12.5697 5.91473 12.2442 5.5893L8.91089 2.25596C8.58546 1.93053 8.58545 1.40289 8.91089 1.07745Z" fill="white"/>
</svg>
