<svg width="12" height="12" viewBox="0 0 12 12" fill="none" xmlns="http://www.w3.org/2000/svg">
<path fill-rule="evenodd" clip-rule="evenodd" d="M2.5 2.49995C2.17783 2.49995 1.91667 2.76112 1.91667 3.08329V10.0833C1.91667 10.4055 2.17783 10.6666 2.5 10.6666H9.5C9.82217 10.6666 10.0833 10.4055 10.0833 10.0833V3.08329C10.0833 2.76112 9.82217 2.49995 9.5 2.49995H2.5ZM0.75 3.08329C0.75 2.11679 1.5335 1.33329 2.5 1.33329H9.5C10.4665 1.33329 11.25 2.11679 11.25 3.08329V10.0833C11.25 11.0498 10.4665 11.8333 9.5 11.8333H2.5C1.5335 11.8333 0.75 11.0498 0.75 10.0833V3.08329Z" fill="white" fill-opacity="0.7"/>
<path fill-rule="evenodd" clip-rule="evenodd" d="M8.33333 0.166626C8.6555 0.166626 8.91667 0.427793 8.91667 0.749959V3.08329C8.91667 3.40546 8.6555 3.66663 8.33333 3.66663C8.01117 3.66663 7.75 3.40546 7.75 3.08329V0.749959C7.75 0.427793 8.01117 0.166626 8.33333 0.166626Z" fill="white" fill-opacity="0.7"/>
<path fill-rule="evenodd" clip-rule="evenodd" d="M3.66669 0.166626C3.98885 0.166626 4.25002 0.427793 4.25002 0.749959V3.08329C4.25002 3.40546 3.98885 3.66663 3.66669 3.66663C3.34452 3.66663 3.08335 3.40546 3.08335 3.08329V0.749959C3.08335 0.427793 3.34452 0.166626 3.66669 0.166626Z" fill="white" fill-opacity="0.7"/>
<path fill-rule="evenodd" clip-rule="evenodd" d="M0.75 5.41662C0.75 5.09445 1.01117 4.83329 1.33333 4.83329H10.6667C10.9888 4.83329 11.25 5.09445 11.25 5.41662C11.25 5.73879 10.9888 5.99995 10.6667 5.99995H1.33333C1.01117 5.99995 0.75 5.73879 0.75 5.41662Z" fill="white" fill-opacity="0.7"/>
</svg>
