<svg width="20" height="15" viewBox="0 0 20 15" fill="none" xmlns="http://www.w3.org/2000/svg">
<path fill-rule="evenodd" clip-rule="evenodd" d="M2.7408 0.86705C2.86468 0.545426 3.17378 0.333252 3.51844 0.333252H11.8518C12.1103 0.333252 12.3542 0.453228 12.5119 0.658021L15.9654 5.14095H16.4814C17.2039 5.14095 17.8902 5.4393 18.3911 5.9595C18.891 6.47863 19.1666 7.17624 19.1666 7.89736V11.7435C19.1666 11.9645 19.0788 12.1765 18.9225 12.3328C18.7662 12.489 18.5543 12.5768 18.3333 12.5768L17.189 12.5768C16.848 13.6778 15.8492 14.4999 14.6295 14.4999C13.4099 14.4999 12.4111 13.6778 12.0701 12.5768H7.92972C7.58877 13.6778 6.58993 14.4999 5.37028 14.4999C4.15063 14.4999 3.15179 13.6778 2.81085 12.5768L1.66659 12.5768C1.44557 12.5768 1.23361 12.489 1.07733 12.3328C0.921049 12.1765 0.833252 11.9645 0.833252 11.7435V5.97428C0.833252 5.87186 0.852132 5.77032 0.888946 5.67474L2.7408 0.86705ZM2.81085 10.9102C3.15179 9.80919 4.15063 8.9871 5.37028 8.9871C6.58993 8.9871 7.58877 9.80919 7.92972 10.9102H12.0701C12.4111 9.80919 13.4099 8.9871 14.6295 8.9871C15.8492 8.9871 16.848 9.80919 17.189 10.9102H17.4999V7.89736C17.4999 7.5984 17.3853 7.31773 17.1906 7.11557C16.9969 6.91448 16.7412 6.80761 16.4814 6.80761H2.49992V10.9102H2.81085ZM2.88059 5.14095H9.16658V1.99992H4.09047L2.88059 5.14095ZM10.8333 1.99992V5.14095H13.8616L11.4418 1.99992H10.8333ZM5.37028 10.6538C4.83713 10.6538 4.35176 11.1117 4.35176 11.7435C4.35176 12.3753 4.83713 12.8333 5.37028 12.8333C5.90343 12.8333 6.3888 12.3753 6.3888 11.7435C6.3888 11.1117 5.90343 10.6538 5.37028 10.6538ZM14.6295 10.6538C14.0964 10.6538 13.611 11.1117 13.611 11.7435C13.611 12.3753 14.0964 12.8333 14.6295 12.8333C15.1627 12.8333 15.6481 12.3753 15.6481 11.7435C15.6481 11.1117 15.1627 10.6538 14.6295 10.6538Z" fill="white"/>
</svg>
