<svg width="12" height="16" viewBox="0 0 12 16" fill="none" xmlns="http://www.w3.org/2000/svg">
<path fill-rule="evenodd" clip-rule="evenodd" d="M2.27656 2.04428C2.2528 2.06656 2.25 2.08412 2.25 2.09375V13.9062C2.25 13.9159 2.2528 13.9334 2.27656 13.9557C2.30115 13.9788 2.34302 14 2.4 14H9.6C9.65698 14 9.69885 13.9788 9.72344 13.9557C9.7472 13.9334 9.75 13.9159 9.75 13.9062V2.09375C9.75 2.08412 9.7472 2.06656 9.72344 2.04428C9.69885 2.02123 9.65698 2 9.6 2H7.64436C7.64817 2.03063 7.65013 2.06184 7.65013 2.0935C7.65013 2.50771 7.31435 2.8435 6.90013 2.8435H5.10013C4.68592 2.8435 4.35013 2.50771 4.35013 2.0935C4.35013 2.06184 4.3521 2.03063 4.3559 2H2.4C2.34302 2 2.30115 2.02123 2.27656 2.04428ZM0.75 2.09375C0.75 1.16869 1.53506 0.5 2.4 0.5H9.6C10.4649 0.5 11.25 1.16869 11.25 2.09375V13.9062C11.25 14.8313 10.4649 15.5 9.6 15.5H2.4C1.53506 15.5 0.75 14.8313 0.75 13.9062V2.09375ZM6.00007 11.4685C6.41428 11.4685 6.75007 11.8043 6.75007 12.2185V12.2269C6.75007 12.6412 6.41428 12.9769 6.00007 12.9769C5.58585 12.9769 5.25007 12.6412 5.25007 12.2269V12.2185C5.25007 11.8043 5.58585 11.4685 6.00007 11.4685Z" fill="#FD5631"/>
</svg>
