<svg width="18" height="22" viewBox="0 0 18 22" fill="none" xmlns="http://www.w3.org/2000/svg">
<path d="M9 18.1758C10.6945 18.1758 12.0732 16.8265 12.0732 15.168C12.0732 14.7442 11.9416 13.9836 10.8034 12.4779C10.2337 11.7239 9.67054 11.1219 9.64688 11.0965L9 10.4065L8.35313 11.0965C8.32946 11.1219 7.76644 11.7239 7.19657 12.4779C6.05837 13.9836 5.92683 14.7442 5.92683 15.168C5.92683 16.8265 7.30547 18.1758 9 18.1758ZM8.5999 13.5112C8.73573 13.3312 8.87241 13.1593 9 13.0038C9.12759 13.1593 9.26427 13.3311 9.4001 13.5112C10.3066 14.7131 10.3171 15.1508 10.3171 15.168C10.3171 15.8788 9.72628 16.457 9 16.457C8.27372 16.457 7.68293 15.8788 7.68293 15.168C7.68293 15.1508 7.69339 14.7131 8.5999 13.5112Z" fill="white"/>
<path d="M17.2284 7.71893L13.6255 4.19264C13.1279 3.70572 12.4664 3.4375 11.7629 3.4375H7.81463V1.71875C7.81463 0.771088 7.02679 0 6.05854 0H4.30244C3.33418 0 2.54634 0.771088 2.54634 1.71875V3.43968C1.13443 3.48534 0 4.62283 0 6.01563V19.4219C0 20.8435 1.18159 22 2.63415 22H15.3659C16.8184 22 18 20.8435 18 19.4219V9.54192C18 8.85341 17.726 8.20602 17.2284 7.71893ZM4.30244 1.71875H6.05854V3.4375H4.30244V1.71875ZM16.2439 19.4219C16.2439 19.8957 15.85 20.2813 15.3659 20.2813H2.63415C2.15002 20.2813 1.7561 19.8957 1.7561 19.4219V6.01563C1.7561 5.54179 2.15002 5.15625 2.63415 5.15625H7.18748L16.2439 14.0201V19.4219ZM16.2439 11.5893L9.67106 5.15625H11.7628C11.9974 5.15625 12.2179 5.24571 12.3837 5.40802L15.9867 8.93431C16.1525 9.09662 16.2439 9.31247 16.2439 9.54192V11.5893Z" fill="white"/>
</svg>
