<svg width="16" height="15" viewBox="0 0 16 15" fill="none" xmlns="http://www.w3.org/2000/svg">
<path fill-rule="evenodd" clip-rule="evenodd" d="M8 1.49999C4.68629 1.49999 2 4.18629 2 7.49999C2 10.8137 4.68629 13.5 8 13.5C11.3137 13.5 14 10.8137 14 7.49999C14 4.18629 11.3137 1.49999 8 1.49999ZM0.5 7.49999C0.5 3.35786 3.85786 -5.95539e-06 8 -5.95539e-06C12.1421 -5.95539e-06 15.5 3.35786 15.5 7.49999C15.5 11.6421 12.1421 15 8 15C3.85786 15 0.5 11.6421 0.5 7.49999Z" fill="white"/>
<path fill-rule="evenodd" clip-rule="evenodd" d="M0.95 5.24999C0.95 4.83578 1.28579 4.49999 1.7 4.49999H14.3C14.7142 4.49999 15.05 4.83578 15.05 5.24999C15.05 5.66421 14.7142 5.99999 14.3 5.99999H1.7C1.28579 5.99999 0.95 5.66421 0.95 5.24999Z" fill="white"/>
<path fill-rule="evenodd" clip-rule="evenodd" d="M0.95 9.74999C0.95 9.33578 1.28579 8.99999 1.7 8.99999H14.3C14.7142 8.99999 15.05 9.33578 15.05 9.74999C15.05 10.1642 14.7142 10.5 14.3 10.5H1.7C1.28579 10.5 0.95 10.1642 0.95 9.74999Z" fill="white"/>
<path fill-rule="evenodd" clip-rule="evenodd" d="M8.02206 0.11372C8.37346 0.33301 8.48056 0.795649 8.26127 1.14705C7.0721 3.05266 6.44165 5.25378 6.44165 7.49999C6.44165 9.74621 7.0721 11.9473 8.26127 13.8529C8.48056 14.2043 8.37346 14.667 8.02206 14.8863C7.67065 15.1056 7.20802 14.9985 6.98873 14.6471C5.65091 12.5032 4.94165 10.027 4.94165 7.49999C4.94165 4.973 5.65091 2.49674 6.98873 0.352935C7.20802 0.00153097 7.67065 -0.105569 8.02206 0.11372Z" fill="white"/>
<path fill-rule="evenodd" clip-rule="evenodd" d="M7.97794 0.11372C8.32935 -0.105569 8.79198 0.00153088 9.01127 0.352935C10.3491 2.49674 11.0583 4.973 11.0583 7.49999C11.0583 10.027 10.3491 12.5032 9.01127 14.6471C8.79198 14.9985 8.32935 15.1056 7.97794 14.8863C7.62654 14.667 7.51944 14.2043 7.73873 13.8529C8.9279 11.9473 9.55835 9.74621 9.55835 7.49999C9.55835 5.25378 8.9279 3.05266 7.73873 1.14705C7.51944 0.795649 7.62654 0.33301 7.97794 0.11372Z" fill="white"/>
</svg>
