<svg width="16" height="16" viewBox="0 0 16 16" fill="none" xmlns="http://www.w3.org/2000/svg">
<path fill-rule="evenodd" clip-rule="evenodd" d="M0.5 2.16667C0.5 1.24619 1.24619 0.5 2.16667 0.5H5.5C6.42047 0.5 7.16667 1.24619 7.16667 2.16667V5.5C7.16667 6.42047 6.42047 7.16667 5.5 7.16667H2.16667C1.24619 7.16667 0.5 6.42047 0.5 5.5V2.16667ZM5.5 2.16667H2.16667V5.5H5.5V2.16667Z" fill="white"/>
<path fill-rule="evenodd" clip-rule="evenodd" d="M8.83333 2.16667C8.83333 1.24619 9.57953 0.5 10.5 0.5H13.8333C14.7538 0.5 15.5 1.24619 15.5 2.16667V5.5C15.5 6.42047 14.7538 7.16667 13.8333 7.16667H10.5C9.57953 7.16667 8.83333 6.42047 8.83333 5.5V2.16667ZM13.8333 2.16667H10.5V5.5H13.8333V2.16667Z" fill="white"/>
<path fill-rule="evenodd" clip-rule="evenodd" d="M0.5 10.5C0.5 9.57951 1.24619 8.83332 2.16667 8.83332H5.5C6.42047 8.83332 7.16667 9.57951 7.16667 10.5V13.8333C7.16667 14.7538 6.42047 15.5 5.5 15.5H2.16667C1.24619 15.5 0.5 14.7538 0.5 13.8333V10.5ZM5.5 10.5H2.16667V13.8333H5.5V10.5Z" fill="white"/>
<path fill-rule="evenodd" clip-rule="evenodd" d="M8.83333 10.5C8.83333 9.57951 9.57953 8.83332 10.5 8.83332H13.8333C14.7538 8.83332 15.5 9.57951 15.5 10.5V13.8333C15.5 14.7538 14.7538 15.5 13.8333 15.5H10.5C9.57953 15.5 8.83333 14.7538 8.83333 13.8333V10.5ZM13.8333 10.5H10.5V13.8333H13.8333V10.5Z" fill="white"/>
</svg>
