<svg width="14" height="13" viewBox="0 0 14 13" fill="none" xmlns="http://www.w3.org/2000/svg">
<path fill-rule="evenodd" clip-rule="evenodd" d="M4.61446 2.01499C4.24862 1.97597 3.87866 2.01311 3.52789 2.12407C3.17711 2.23502 2.85312 2.41739 2.57632 2.65967C2.29951 2.90196 2.07589 3.19891 1.91953 3.53184C1.76316 3.86476 1.67744 4.22644 1.66775 4.5941C1.65807 4.96176 1.72463 5.32745 1.86324 5.66814C2.00186 6.00883 2.20953 6.31714 2.47319 6.57365L2.4774 6.57775L7.00571 11.0618L11.5251 6.58667C11.5382 6.57026 11.5547 6.54971 11.5736 6.52568C11.6273 6.45753 11.7004 6.36279 11.778 6.25636C11.9469 6.02471 12.0892 5.80179 12.1405 5.67463C12.2775 5.33455 12.3428 4.96984 12.3324 4.60335C12.322 4.23685 12.236 3.87645 12.0799 3.5447C11.9237 3.21294 11.7007 2.91697 11.4249 2.67532C11.1491 2.43367 10.8263 2.25153 10.4768 2.14031C10.1273 2.0291 9.75866 1.99121 9.39384 2.029C9.02903 2.0668 8.67595 2.17948 8.3567 2.35998C8.03746 2.54048 7.75892 2.78491 7.53852 3.07797C7.41219 3.24595 7.21404 3.34452 7.00386 3.34394C6.79368 3.34335 6.59608 3.24368 6.47069 3.075C6.25124 2.7798 5.97302 2.53321 5.65356 2.35077C5.3341 2.16834 4.9803 2.05401 4.61446 2.01499ZM12.5149 7.47879C12.5168 7.48039 12.5169 7.48031 12.5169 7.48031L12.5195 7.47711L12.5255 7.4698L12.5467 7.4438C12.5646 7.42168 12.5899 7.39016 12.6206 7.35122C12.6818 7.27362 12.7655 7.16516 12.8554 7.04182C13.0216 6.81392 13.2571 6.47099 13.3772 6.17295C13.5828 5.66263 13.6809 5.11538 13.6652 4.56542C13.6496 4.01547 13.5206 3.47467 13.2862 2.97687C13.0519 2.47908 12.7174 2.035 12.3035 1.67243C11.8897 1.30986 11.4055 1.03661 10.8812 0.869759C10.3568 0.702913 9.80372 0.646065 9.25643 0.702771C8.70913 0.759477 8.17943 0.928517 7.70047 1.19932C7.45217 1.3397 7.22029 1.50587 7.00845 1.69462C6.79641 1.50356 6.56395 1.33524 6.31476 1.19294C5.83547 0.919231 5.3047 0.747713 4.75586 0.689178C4.20703 0.630643 3.65202 0.686357 3.12577 0.852815C2.59953 1.01927 2.11345 1.29287 1.69814 1.65639C1.28284 2.0199 0.947302 2.46546 0.712677 2.96501C0.478051 3.46456 0.349418 4.00728 0.334883 4.55898C0.320347 5.11069 0.420224 5.65942 0.628221 6.17063C0.835836 6.6809 1.14668 7.14275 1.54124 7.5272L6.53608 12.4731L6.5366 12.4736C6.79641 12.7309 7.21499 12.7309 7.47479 12.4737L12.4256 7.57139C12.4583 7.54456 12.4889 7.51412 12.5169 7.48031L12.5149 7.47879Z" fill="#FD5631"/>
</svg>
