<svg width="86" height="48" viewBox="0 0 86 48" fill="none" xmlns="http://www.w3.org/2000/svg">
<g opacity="0.4">
<path d="M58.1377 6.28125L55.2686 41.72H50.0615C50.0615 41.72 49.9962 38.2881 48.4033 35.6903C48.1425 35.2574 47.807 34.9089 47.3972 34.6766C46.2421 34.0009 44.3697 33.7843 43.0004 33.7843C41.6311 33.7843 39.7587 34.0008 38.6037 34.6766C38.1939 34.9089 37.8584 35.2575 37.5975 35.6903C36.0046 38.2881 35.9394 41.72 35.9394 41.72H30.7324L27.8633 6.28125H31.664C33.3406 16.0068 34.6355 21.1494 36.8897 25.3733C37.3741 26.2815 38.1847 26.9151 39.1068 27.0841C40.3642 27.3058 41.5767 27.3402 43.0005 27.3402C44.4242 27.3402 45.6368 27.3058 46.8942 27.0841C47.8165 26.9151 48.6269 26.2815 49.1113 25.3733C51.3656 21.1494 52.6603 16.0068 54.3371 6.28125C54.3371 6.28125 58.1377 6.28125 58.1377 6.28125Z" fill="#EFECF3"/>
<path d="M40.7173 33.7773C39.348 33.7773 37.4756 33.9938 36.3205 34.6697C35.9108 34.902 35.5753 35.2505 35.3144 35.6834C33.7215 38.2811 33.6562 41.713 33.6562 41.713H35.9396C35.9396 41.713 36.0049 38.2811 37.5978 35.6834C37.8586 35.2504 38.1941 34.902 38.6039 34.6697C39.4604 34.1686 40.7112 33.9203 41.859 33.8253C41.459 33.7922 41.0712 33.7773 40.7173 33.7773Z" fill="#9691A4"/>
<path d="M36.8218 27.0841C38.0792 27.3058 39.2917 27.3402 40.7155 27.3402C41.1109 27.3402 41.4889 27.3369 41.8572 27.3283C40.8994 27.306 40.0134 27.2442 39.1052 27.0841C38.183 26.9151 37.3725 26.2815 36.8881 25.3733C34.6339 21.1494 33.3391 16.0068 31.6624 6.28125H29.3789C31.0555 16.0068 32.3504 21.1494 34.6046 25.3733C35.089 26.2815 35.8996 26.9151 36.8218 27.0841Z" fill="#BBB7C5"/>
<path d="M55.8535 6.28125L52.9844 41.72H55.2677L58.1369 6.28125H55.8535Z" fill="#9691A4"/>
<path d="M54.5456 2.8125H31.6413C19.0247 2.8125 18.851 6.76322 19.0315 11.5701L20.0001 37.3343C20.1642 41.6972 23.4666 45.1875 27.378 45.1875H58.6219C62.5332 45.1875 65.8357 41.6972 65.9998 37.3343L66.9684 11.5701C67.1488 6.76322 66.9751 2.8125 54.5456 2.8125ZM63.2452 11.4025L62.2766 37.1667C62.1956 39.3405 60.5554 41.1097 58.6219 41.1097H27.378C25.4445 41.1097 23.8043 39.3404 23.7233 37.1667L22.7546 11.4025C22.7054 10.0994 23.0981 8.90325 23.8583 8.0355C24.3165 7.5135 25.1086 6.89128 26.2818 6.89128H59.7179C60.8911 6.89128 61.6831 7.5135 62.1414 8.0355C62.9017 8.90325 63.2944 10.0994 63.2452 11.4025Z" fill="#EFECF3"/>
<path d="M26.2813 6.89044H24.0944C22.9212 6.89044 22.1291 7.51266 21.6708 8.03466C20.9106 8.90241 20.5179 10.0986 20.5671 11.4017L21.5357 37.1659C21.6167 39.3397 23.2569 41.1088 25.1904 41.1088H27.3773C25.4438 41.1088 23.8036 39.3396 23.7226 37.1659L22.7539 11.4017C22.7047 10.0986 23.0974 8.90241 23.8576 8.03466C24.316 7.51266 25.1081 6.89044 26.2813 6.89044Z" fill="#BBB7C5"/>
<path d="M54.5458 2.8125H52.3589C64.7883 2.8125 64.9621 6.76322 64.7816 11.5701L63.813 37.3343C63.649 41.6972 60.3465 45.1875 56.4352 45.1875H58.6221C62.5334 45.1875 65.8359 41.6972 66 37.3343L66.9686 11.5701C67.149 6.76322 66.9753 2.8125 54.5458 2.8125Z" fill="#9691A4"/>
</g>
</svg>
