<svg width="86" height="48" viewBox="0 0 86 48" fill="none" xmlns="http://www.w3.org/2000/svg">
<g opacity="0.4">
<path d="M43 11.1562C29.7454 11.1562 19 16.907 19 24.0005C19 31.094 29.7454 36.8438 43 36.8438C56.2546 36.8438 67 31.0941 67 24.0005C67 16.9069 56.2546 11.1562 43 11.1562ZM58.6024 30.5306C55.341 32.2768 51.188 33.4007 46.6517 33.7933C45.9418 33.855 45.2222 33.8985 44.496 33.9226C44.0005 33.941 43.5021 33.9496 43 33.9496C38.1652 33.9496 33.596 33.146 29.842 31.6584C29.2538 31.4259 28.6849 31.1761 28.1393 30.9098C27.8872 30.7864 27.64 30.66 27.3976 30.5307C23.9024 28.6601 21.8973 26.2802 21.8973 24.0006C21.8973 21.7209 23.9024 19.34 27.3976 17.4695C30.5103 15.8044 34.4343 14.7037 38.7292 14.2657C39.4285 14.1933 40.1373 14.1402 40.854 14.1045C41.5619 14.0688 42.2785 14.0505 43 14.0505C47.7082 14.0505 52.1644 14.8136 55.8615 16.226C56.4322 16.444 56.9837 16.6775 57.5159 16.9264C57.8877 17.1 58.2509 17.2814 58.6024 17.4695C62.0976 19.3401 64.1027 21.7209 64.1027 24.0006C64.1027 26.2801 62.0976 28.66 58.6024 30.5306Z" fill="#EFECF3"/>
<path d="M43 11.1562C42.5134 11.1562 42.0307 11.165 41.5513 11.1802C54.1311 11.5812 64.1026 17.1673 64.1026 24.0006C64.1026 30.8338 54.1311 36.4189 41.5513 36.8198C42.0307 36.835 42.5134 36.8438 43 36.8438C56.2546 36.8438 67 31.0941 67 24.0005C67 16.9069 56.2546 11.1562 43 11.1562Z" fill="#9691A4"/>
<path d="M57.5157 16.9271C54.4831 22.1713 48.9819 30.3608 46.6515 33.7942C45.9416 33.8559 45.2221 33.8994 44.4958 33.9235C45.5302 30.9695 47.1459 24.5918 41.8129 24.5918C36.6276 24.5918 31.9019 29.2842 29.8418 31.6593C29.2537 31.4268 28.6848 31.177 28.1392 30.9107C32.3269 22.9374 36.7463 16.8529 38.7291 14.2664C39.4284 14.1941 40.1372 14.141 40.8538 14.1053C39.6581 17.1422 38.6132 21.9349 43.9251 21.9349C49.2138 21.9349 53.5975 18.4543 55.8613 16.2267C56.4322 16.4447 56.9836 16.6782 57.5157 16.9271Z" fill="#EFECF3"/>
<path d="M55.8616 16.2274C55.4608 16.6217 54.9924 17.0556 54.4656 17.5022C51.8094 22.0189 47.5944 28.3715 45.0376 32.1665C44.865 32.8193 44.6722 33.4214 44.4961 33.9241C45.2224 33.9 45.9419 33.8566 46.6518 33.7948C48.9822 30.3614 54.4834 22.1719 57.516 16.9277C56.9839 16.6788 56.4324 16.4454 55.8616 16.2274Z" fill="#9691A4"/>
</g>
</svg>
