<svg width="86" height="48" viewBox="0 0 86 48" fill="none" xmlns="http://www.w3.org/2000/svg">
<g opacity="0.4">
<path d="M43 12.8438C29.7438 12.8438 19 17.8928 19 24.1274C19 29.5268 27.0574 34.0422 37.8322 35.1547C37.9555 35.1674 38.0738 35.1002 38.1258 34.9881L42.737 25.055C42.8407 24.8317 43.1593 24.8317 43.263 25.055L47.8742 34.9881C47.9262 35.1002 48.0445 35.1673 48.1678 35.1547C58.9426 34.0422 67 29.5269 67 24.1274C67 17.8928 56.2561 12.8438 43 12.8438ZM53.2778 29.3571L43.2122 18.5754C43.0976 18.4527 42.9025 18.4527 42.7879 18.5754L32.7222 29.3571C27.0106 28.8074 23.2344 25.6823 23.2344 22.8711C23.2344 19.2433 31.3556 15.1994 43.0001 15.1994C54.6525 15.1994 62.7658 19.2433 62.7658 22.8711C62.7657 25.6823 58.9894 28.8074 53.2778 29.3571Z" fill="#F5F4F8"/>
<path d="M53.1919 29.376C53.2215 29.3703 53.2502 29.3643 53.278 29.3581L43.2123 18.5764C43.0978 18.4537 42.9027 18.4537 42.7881 18.5764L41.793 19.6424L49.8434 28.2654C50.697 29.1797 51.9618 29.6144 53.1919 29.376Z" fill="#9691A4"/>
<path d="M38.1749 29.6817L35.7559 34.8926C36.4357 34.9938 37.1282 35.0816 37.8327 35.1544C37.9559 35.1672 38.0741 35.1 38.1261 34.9879L43.0003 24.4883L42.7373 25.0547C40.6198 26.2356 39.1938 27.4869 38.1749 29.6817Z" fill="#BBB7C5"/>
<path d="M43.0002 12.8438C42.5954 12.8438 42.1929 12.8486 41.793 12.8579C54.488 13.1534 64.5858 18.0832 64.5858 24.1274C64.5858 29.1737 57.547 33.4473 47.8302 34.8929L47.8743 34.9882C47.9264 35.1003 48.0447 35.1674 48.168 35.1548C58.9427 34.0422 67.0002 29.5268 67.0002 24.1275C67.0002 17.8928 56.2563 12.8438 43.0002 12.8438Z" fill="#9691A4"/>
</g>
</svg>
