<svg width="86" height="48" viewBox="0 0 86 48" fill="none" xmlns="http://www.w3.org/2000/svg">
<path d="M63.1509 27.643C62.5167 29.6695 61.3265 31.5481 59.7018 33.1746H34.0111C28.3638 33.1746 30.2144 28.9302 30.2144 28.9302C33.4028 22.1636 40.9182 12.2659 43.5854 8.83905C46.5914 8.91733 49.4411 9.46521 51.9955 10.3959C46.0267 17.1016 40.7791 23.7465 38.6331 26.5123C38.2074 27.0602 38.6071 27.843 39.2934 27.843L63.1509 27.643Z" fill="#EFECF3"/>
<path d="M45.548 9.32569C47.3705 9.67623 48.1311 11.8684 46.9181 13.2719C42.0268 18.9313 37.9152 24.1436 36.0777 26.5119C35.652 27.0598 36.0516 27.8426 36.738 27.8426L38.717 27.826C38.8044 27.8253 38.8423 27.7157 38.7739 27.6613C38.4434 27.3984 38.3336 26.8975 38.6332 26.5119C40.7681 23.7603 45.973 17.1693 51.9038 10.4987C51.9476 10.4494 51.9282 10.3709 51.8661 10.3487C49.3586 9.45132 46.5709 8.92126 43.6331 8.83988C43.6033 8.83904 43.575 8.85216 43.5567 8.87569C43.5562 8.87626 43.5558 8.87682 43.5554 8.87738C43.511 8.93438 43.546 9.01763 43.6177 9.02616C44.2716 9.10388 44.9156 9.20401 45.548 9.32569Z" fill="#BBB7C5"/>
<path d="M60.5694 27.7278C59.9496 29.6569 58.8258 31.4502 57.3026 33.0171C57.2453 33.076 57.286 33.1744 57.3683 33.1744H59.6641C59.6891 33.1744 59.7132 33.1643 59.7308 33.1466C61.3087 31.5595 62.4735 29.7337 63.1131 27.7656C63.1327 27.7053 63.0867 27.6433 63.0233 27.6439L60.6564 27.6637C60.6165 27.664 60.5816 27.6898 60.5694 27.7278Z" fill="#9691A4"/>
<path d="M43 7.59375C29.7454 7.59375 19 14.939 19 24C19 33.061 29.7454 40.4062 43 40.4062C56.2546 40.4062 67 33.061 67 24C67 14.939 56.2546 7.59375 43 7.59375ZM62.312 27.3064C61.7103 29.2308 60.5794 31.0151 59.0371 32.5593C55.4317 36.1928 49.5916 38.5553 43 38.5553C32.0527 38.5553 23.1684 32.0391 23.1684 24.0029C23.1684 15.96 32.0527 9.44381 43 9.44381C43.2472 9.44381 43.4868 9.44381 43.734 9.4515C46.5888 9.52584 49.294 10.046 51.7202 10.93C58.303 13.2925 62.8316 18.2559 62.8316 24.0029C62.8316 25.1426 62.6501 26.2496 62.312 27.3064Z" fill="#EFECF3"/>
<path d="M41.8285 9.47128C41.6593 9.46369 41.4897 9.45741 41.3195 9.453C41.0723 9.44531 40.8327 9.44531 40.5855 9.44531C29.6382 9.44531 20.7539 15.9615 20.7539 24.0044C20.7539 32.0406 29.6382 38.5568 40.5855 38.5568C40.9946 38.5568 41.4008 38.5476 41.8038 38.5296C31.413 38.0753 23.1683 31.7456 23.1683 24.0044C23.1683 16.2504 31.426 9.9165 41.8285 9.47128Z" fill="#BBB7C5"/>
<path d="M43.0002 7.59375C42.5953 7.59375 42.1929 7.60088 41.793 7.61438C54.4866 8.04431 64.5857 15.2157 64.5857 24C64.5857 32.7843 54.4866 39.9557 41.793 40.3856C42.1929 40.3992 42.5954 40.4062 43.0002 40.4062C56.2548 40.4062 67.0002 33.061 67.0002 24C67.0002 14.939 56.2548 7.59375 43.0002 7.59375Z" fill="#9691A4"/>
</svg>
