<svg width="16" height="16" viewBox="0 0 16 16" fill="none" xmlns="http://www.w3.org/2000/svg">
<path fill-rule="evenodd" clip-rule="evenodd" d="M3.00024 2.16691C2.54001 2.16691 2.16691 2.54001 2.16691 3.00024V4.66691C2.16691 5.12715 2.54001 5.50024 3.00024 5.50024H13.0002C13.4605 5.50024 13.8336 5.12715 13.8336 4.66691V3.00024C13.8336 2.54001 13.4605 2.16691 13.0002 2.16691H3.00024ZM0.500244 3.00024C0.500244 1.61953 1.61953 0.500244 3.00024 0.500244H13.0002C14.381 0.500244 15.5002 1.61953 15.5002 3.00024V4.66691C15.5002 6.04762 14.381 7.16691 13.0002 7.16691H3.00024C1.61953 7.16691 0.500244 6.04762 0.500244 4.66691V3.00024Z" fill="white"/>
<path fill-rule="evenodd" clip-rule="evenodd" d="M3.00024 10.5C2.54001 10.5 2.16691 10.8731 2.16691 11.3333V13C2.16691 13.4602 2.54001 13.8333 3.00024 13.8333H13.0002C13.4605 13.8333 13.8336 13.4602 13.8336 13V11.3333C13.8336 10.8731 13.4605 10.5 13.0002 10.5H3.00024ZM0.500244 11.3333C0.500244 9.95262 1.61953 8.83333 3.00024 8.83333H13.0002C14.381 8.83333 15.5002 9.95262 15.5002 11.3333V13C15.5002 14.3807 14.381 15.5 13.0002 15.5H3.00024C1.61953 15.5 0.500244 14.3807 0.500244 13V11.3333Z" fill="white"/>
</svg>
