<svg width="14" height="16" viewBox="0 0 14 16" fill="none" xmlns="http://www.w3.org/2000/svg">
<path fill-rule="evenodd" clip-rule="evenodd" d="M6.99998 5.24981C6.17156 5.24981 5.49998 5.92138 5.49998 6.74981C5.49998 7.57824 6.17156 8.24981 6.99998 8.24981C7.82841 8.24981 8.49998 7.57824 8.49998 6.74981C8.49998 5.92138 7.82841 5.24981 6.99998 5.24981ZM3.99998 6.74981C3.99998 5.09295 5.34313 3.74981 6.99998 3.74981C8.65684 3.74981 9.99998 5.09295 9.99998 6.74981C9.99998 8.40666 8.65684 9.74981 6.99998 9.74981C5.34313 9.74981 3.99998 8.40666 3.99998 6.74981Z" fill="white"/>
<path fill-rule="evenodd" clip-rule="evenodd" d="M7 1.5C5.96166 1.5 4.94664 1.8079 4.08329 2.38477C3.21994 2.96163 2.54703 3.78155 2.14966 4.74085C1.75229 5.70015 1.64831 6.75573 1.85086 7.77412C2.05341 8.79252 2.5534 9.72798 3.2876 10.4622L6.47032 13.6442C6.61095 13.7847 6.8016 13.8636 7.00038 13.8636C7.19916 13.8636 7.38981 13.7847 7.53044 13.6442L10.7124 10.4622C11.4466 9.72798 11.9466 8.79251 12.1491 7.77412C12.3517 6.75573 12.2477 5.70015 11.8503 4.74085C11.453 3.78155 10.7801 2.96163 9.91672 2.38477C9.05337 1.8079 8.03834 1.5 7 1.5ZM11.7731 11.5228C12.7171 10.5788 13.3599 9.37609 13.6203 8.06673C13.8808 6.75737 13.7471 5.40019 13.2362 4.16681C12.7253 2.93343 11.8601 1.87924 10.7501 1.13756C9.64004 0.395872 8.33501 0 7 0C5.66499 0 4.35996 0.395872 3.24994 1.13756C2.13992 1.87924 1.27475 2.93343 0.763849 4.16681C0.252948 5.40019 0.119255 6.75737 0.379677 8.06673C0.640099 9.37609 1.28294 10.5788 2.22691 11.5228L5.40999 14.7052C5.83188 15.1266 6.40403 15.3636 7.00038 15.3636C7.59672 15.3636 8.16867 15.1268 8.59056 14.7054L11.7731 11.5228Z" fill="white"/>
</svg>
