<svg width="18" height="14" viewBox="0 0 18 14" fill="none" xmlns="http://www.w3.org/2000/svg">
<path fill-rule="evenodd" clip-rule="evenodd" d="M3.16665 2.00004C2.70642 2.00004 2.33332 2.37314 2.33332 2.83337V11.1667C2.33332 11.6269 2.70642 12 3.16665 12H14.8333C15.2936 12 15.6667 11.6269 15.6667 11.1667V2.83337C15.6667 2.37314 15.2936 2.00004 14.8333 2.00004H3.16665ZM0.666653 2.83337C0.666653 1.45266 1.78594 0.333374 3.16665 0.333374H14.8333C16.214 0.333374 17.3333 1.45266 17.3333 2.83337V11.1667C17.3333 12.5474 16.214 13.6667 14.8333 13.6667H3.16665C1.78594 13.6667 0.666653 12.5474 0.666653 11.1667V2.83337Z" fill="white"/>
<path fill-rule="evenodd" clip-rule="evenodd" d="M0.806612 2.37109C1.06191 1.98815 1.5793 1.88467 1.96224 2.13997L8.99999 6.8318L16.0377 2.13997C16.4207 1.88467 16.9381 1.98815 17.1934 2.37109C17.4487 2.75403 17.3452 3.27142 16.9622 3.52672L9.46224 8.52672C9.18232 8.71333 8.81765 8.71333 8.53774 8.52672L1.03774 3.52672C0.654796 3.27142 0.551318 2.75403 0.806612 2.37109Z" fill="white"/>
</svg>
