<svg width="16" height="12" viewBox="0 0 16 12" fill="none" xmlns="http://www.w3.org/2000/svg">
<path fill-rule="evenodd" clip-rule="evenodd" d="M2.75008 1.5C2.33587 1.5 2.00008 1.83579 2.00008 2.25V9.75C2.00008 10.1642 2.33587 10.5 2.75008 10.5H13.2501C13.6643 10.5 14.0001 10.1642 14.0001 9.75V2.25C14.0001 1.83579 13.6643 1.5 13.2501 1.5H2.75008ZM0.50008 2.25C0.50008 1.00736 1.50744 0 2.75008 0H13.2501C14.4927 0 15.5001 1.00736 15.5001 2.25V9.75C15.5001 10.9926 14.4927 12 13.2501 12H2.75008C1.50744 12 0.50008 10.9926 0.50008 9.75V2.25Z" fill="#FD5631"/>
<path fill-rule="evenodd" clip-rule="evenodd" d="M0.626042 1.83395C0.855806 1.4893 1.32146 1.39617 1.6661 1.62593L8.00008 5.84858L14.3341 1.62593C14.6787 1.39617 15.1444 1.4893 15.3741 1.83395C15.6039 2.17859 15.5108 2.64425 15.1661 2.87401L8.4161 7.37401C8.16418 7.54196 7.83598 7.54196 7.58405 7.37401L0.834055 2.87401C0.489408 2.64425 0.396278 2.17859 0.626042 1.83395Z" fill="#FD5631"/>
</svg>
