<svg width="86" height="48" viewBox="0 0 86 48" fill="none" xmlns="http://www.w3.org/2000/svg">
<g opacity="0.4">
<path d="M43 0C29.7503 0 19 10.7438 19 23.9963C19 37.2563 29.7503 48 43 48C56.2497 48 67 37.2563 67 23.9963C67 10.7438 56.2497 0 43 0ZM43 44.6213C31.63 44.6213 22.3806 35.37 22.3806 23.9991C22.3806 12.6272 31.63 3.37594 43 3.37594C54.3691 3.37594 63.6194 12.6272 63.6194 23.9991C63.6194 35.37 54.3691 44.6213 43 44.6213Z" fill="#EFECF3"/>
<path d="M43.0013 0C42.4329 0 41.8696 0.0211875 41.311 0.0600937C53.7727 0.927844 63.6207 11.3123 63.6207 23.9963C63.6207 36.6875 53.7726 47.0722 41.311 47.9399C41.8696 47.9788 42.4329 48 43.0013 48C56.251 48 67.0013 37.2563 67.0013 23.9963C67.0013 10.7438 56.251 0 43.0013 0Z" fill="#9691A4"/>
<path d="M61.1327 34.1803C61.1318 34.1822 61.1309 34.1842 61.1298 34.186L61.1289 34.1879C61.1222 34.1993 61.1108 34.207 61.0974 34.2118H61.0965L60.8864 34.1316L43.1987 27.4335C43.0704 27.3849 42.9287 27.3849 42.8004 27.4335L25.1155 34.1297L24.9015 34.2109C24.8892 34.2061 24.8787 34.1985 24.8719 34.1879L24.871 34.186C24.8691 34.1842 24.8681 34.1822 24.8681 34.1794C24.8605 34.165 24.8594 34.1488 24.8642 34.1306L25.019 33.9902L38.7794 21.5674C38.8661 21.4891 38.9263 21.3857 38.9516 21.2716L42.8954 3.48563L42.904 3.44841L42.9288 3.33281C42.9403 3.31181 42.9555 3.29559 42.9728 3.28791C42.9805 3.28313 42.989 3.28125 42.9986 3.28125H43.0004C43.0081 3.28125 43.0167 3.28313 43.0244 3.28697C43.0425 3.29559 43.0588 3.31275 43.0702 3.33666C43.0711 3.33666 43.0711 3.33759 43.0711 3.33853L43.095 3.44644L43.1037 3.48656L47.0465 21.2716C47.0718 21.3857 47.132 21.4891 47.2187 21.5674L60.978 33.9893C60.979 33.9883 60.979 33.9893 60.9799 33.9902L61.1375 34.1325C61.1375 34.1334 61.1375 34.1334 61.1375 34.1334C61.1414 34.1507 61.1404 34.1669 61.1327 34.1803Z" fill="#9691A4"/>
<path d="M42.9995 3.28134V22.9876L25.1413 34.0113L24.8681 34.1794C24.8605 34.165 24.8594 34.1488 24.8642 34.1306L25.019 33.9902L38.7794 21.5674C38.8661 21.4891 38.9263 21.3857 38.9516 21.2716L42.8954 3.48563L42.904 3.44841L42.9288 3.33281C42.9403 3.31181 42.9555 3.29559 42.9728 3.28791C42.9805 3.28313 42.989 3.28125 42.9986 3.28125L42.9995 3.28134Z" fill="#F5F4F8"/>
<path d="M61.1333 34.1848L60.8601 34.0158L43.001 22.9922V3.28595C43.0087 3.28595 43.0172 3.28782 43.0249 3.29167C43.0431 3.30029 43.0593 3.31745 43.0707 3.34136C43.0717 3.34136 43.0717 3.34229 43.0717 3.34323C43.0717 3.34323 43.0726 3.34323 43.0726 3.34417L43.0955 3.44729L43.105 3.49023L47.0488 21.2762C47.0741 21.3903 47.1343 21.4936 47.221 21.572L60.9804 33.9948L61.1379 34.1362C61.137 34.1371 61.1379 34.1371 61.1379 34.1371C61.1379 34.138 61.1379 34.138 61.1379 34.138C61.1419 34.1552 61.1409 34.1714 61.1333 34.1848Z" fill="#EFECF3"/>
</g>
</svg>
