<svg width="20" height="19" viewBox="0 0 20 19" fill="none" xmlns="http://www.w3.org/2000/svg">
<path fill-rule="evenodd" clip-rule="evenodd" d="M9.99998 9.99864C9.4477 9.99864 8.99998 10.4464 8.99998 10.9986C8.99998 11.5509 9.4477 11.9986 9.99998 11.9986C10.5523 11.9986 11 11.5509 11 10.9986C11 10.4464 10.5523 9.99864 9.99998 9.99864ZM6.99998 10.9986C6.99998 9.34178 8.34313 7.99864 9.99998 7.99864C11.6568 7.99864 13 9.34178 13 10.9986C13 12.6555 11.6568 13.9986 9.99998 13.9986C8.34313 13.9986 6.99998 12.6555 6.99998 10.9986Z" fill="white"/>
<path fill-rule="evenodd" clip-rule="evenodd" d="M14.2071 6.79153C14.5976 7.18205 14.5976 7.81522 14.2071 8.20574L12.1571 10.2557C11.7666 10.6463 11.1334 10.6463 10.7429 10.2557C10.3524 9.86522 10.3524 9.23205 10.7429 8.84153L12.7929 6.79153C13.1834 6.40101 13.8166 6.40101 14.2071 6.79153Z" fill="white"/>
<path fill-rule="evenodd" clip-rule="evenodd" d="M10 2.95312C8.34012 2.95312 6.72133 3.46944 5.36799 4.43051C4.01464 5.39159 2.99375 6.74983 2.4468 8.31701C1.89984 9.88419 1.85391 11.5827 2.31536 13.1771C2.74525 14.6626 3.59567 15.9891 4.76061 16.9987H15.2394C16.4043 15.9891 17.2547 14.6626 17.6846 13.1771C18.1461 11.5827 18.1002 9.88419 17.5532 8.31701C17.0062 6.74983 15.9854 5.39159 14.632 4.43051C13.2787 3.46944 11.6599 2.95312 10 2.95312ZM4.20998 2.79986C5.90167 1.59852 7.92515 0.953125 10 0.953125C12.0749 0.953125 14.0983 1.59852 15.79 2.79986C17.4817 4.0012 18.7578 5.69901 19.4415 7.65798C20.1252 9.61696 20.1826 11.7401 19.6058 13.7332C19.029 15.7262 17.8465 17.4905 16.2222 18.7815C16.0453 18.9221 15.826 18.9987 15.6 18.9987H4.4C4.17401 18.9987 3.95469 18.9221 3.77778 18.7815C2.1535 17.4905 0.971014 15.7262 0.394198 13.7332C-0.182617 11.7401 -0.125199 9.61696 0.558495 7.65798C1.24219 5.69901 2.5183 4.0012 4.20998 2.79986Z" fill="white"/>
</svg>
