<svg width="86" height="48" viewBox="0 0 86 48" fill="none" xmlns="http://www.w3.org/2000/svg">
<g opacity="0.4">
<path d="M50.9176 16.3822L43.3317 29.1666C43.1803 29.4216 42.811 29.4216 42.6597 29.1664L35.0819 16.382C35.0092 16.2593 35.0092 16.1066 35.0818 15.9839L42.6596 3.19152C42.8109 2.93624 43.1803 2.93614 43.3317 3.19133L50.9176 15.9837C50.9904 16.1066 50.9904 16.2594 50.9176 16.3822Z" fill="#EFECF3"/>
<path d="M34.2574 44.9998L19.3904 44.97C19.0941 44.9694 18.9063 44.6521 19.0484 44.3922L26.1831 31.3293C26.2516 31.2038 26.3834 31.1258 26.5264 31.126L41.3963 31.1446C41.6926 31.145 41.8806 31.4623 41.7387 31.7223L34.6011 44.7963C34.5325 44.922 34.4006 45 34.2574 44.9998Z" fill="#EFECF3"/>
<path d="M66.609 44.9698L64.1648 44.9747L51.7426 45.0001C51.5991 45.0001 51.4673 44.922 51.3988 44.796L44.2615 31.7221C44.1189 31.4624 44.3074 31.1451 44.6033 31.1441L57.0773 31.1284L59.4736 31.1255C59.6162 31.1255 59.748 31.2036 59.8164 31.3296L66.9518 44.3918C67.0934 44.6525 66.9059 44.9689 66.609 44.9698Z" fill="#EFECF3"/>
<path d="M66.608 44.9697L64.1638 44.9746L64.1667 44.9697C64.4636 44.9688 64.651 44.6524 64.5094 44.3917L57.374 31.3295C57.3125 31.2172 57.2011 31.143 57.0762 31.1284L59.4725 31.1255C59.6151 31.1255 59.7469 31.2036 59.8153 31.3296L66.9507 44.3918C67.0924 44.6524 66.9049 44.9688 66.608 44.9697Z" fill="#BBB7C5"/>
<path d="M41.396 31.1446L26.5261 31.126C26.5107 31.126 26.4955 31.1273 26.4805 31.1291L38.9222 31.1447C39.2186 31.1451 39.4065 31.4624 39.2646 31.7224L32.127 44.7964C32.0681 44.9043 31.9624 44.9768 31.843 44.995L34.2572 44.9998C34.4004 45.0001 34.5323 44.922 34.6008 44.7964L41.7384 31.7224C41.8804 31.4623 41.6923 31.145 41.396 31.1446Z" fill="#BBB7C5"/>
<path d="M48.4264 15.9833C48.4993 16.1061 48.4992 16.2589 48.4263 16.3817L41.7501 27.6331L42.6586 29.1659C42.8098 29.4211 43.1792 29.4212 43.3305 29.1661L50.9164 16.3818C50.9893 16.259 50.9893 16.1062 50.9165 15.9833L43.3306 3.19088C43.1793 2.93569 42.8097 2.93569 42.6585 3.19107L41.75 4.72472L48.4264 15.9833Z" fill="#BBB7C5"/>
</g>
</svg>
