<svg width="86" height="48" viewBox="0 0 86 48" fill="none" xmlns="http://www.w3.org/2000/svg">
<g opacity="0.4">
<path d="M42.9997 2.24609C30.9865 2.24609 21.2471 11.9845 21.2471 23.9988C21.2471 36.0121 30.9865 45.7514 42.9997 45.7514C55.014 45.7514 64.7524 36.0121 64.7524 23.9988C64.7525 11.9844 55.0141 2.24609 42.9997 2.24609ZM42.9997 40.9175C33.6557 40.9175 26.081 33.3428 26.081 23.9988C26.081 14.6547 33.6558 7.08012 42.9997 7.08012C52.3437 7.08012 59.9185 14.6549 59.9185 23.9988C59.9185 33.3428 52.3438 40.9175 42.9997 40.9175Z" fill="#EFECF3"/>
<path d="M41.7913 7.12239C41.3921 7.09417 40.9893 7.07898 40.5828 7.07898C31.2388 7.07898 23.6641 14.6538 23.6641 23.9977C23.6641 33.3418 31.2388 40.9165 40.5828 40.9165C40.9893 40.9165 41.3921 40.9012 41.7913 40.8731C33.0115 40.2533 26.081 32.9353 26.081 23.9977C26.0811 15.0602 33.0115 7.74207 41.7913 7.12239Z" fill="#9691A4"/>
<path d="M42.9994 2.24609C42.5938 2.24609 42.1911 2.25809 41.791 2.28003C53.243 2.90722 62.3353 12.3902 62.3353 23.9988C62.3353 35.6065 53.2431 45.0904 41.7911 45.7175C42.1912 45.7394 42.594 45.7514 42.9995 45.7514C55.0138 45.7514 64.7522 36.0121 64.7522 23.9988C64.7522 11.9844 55.0138 2.24609 42.9994 2.24609Z" fill="#9691A4"/>
<path d="M66.6245 30.467H19.3755C19.1682 30.467 19 30.2989 19 30.0915V17.9033C19 17.696 19.1681 17.5278 19.3755 17.5278H66.6246C66.8319 17.5278 67 17.6959 67 17.9033V30.0915C66.9999 30.2989 66.8319 30.467 66.6245 30.467Z" fill="#F5F4F8"/>
<path d="M66.625 30.4703H64.5859V17.5312H66.625C66.8323 17.5312 67.0004 17.6993 67.0004 17.9067V30.095C67.0004 30.3022 66.8324 30.4703 66.625 30.4703Z" fill="#EFECF3"/>
<path d="M28.0249 19.6988C27.6365 19.6988 27.3218 20.0143 27.3218 20.4034V25.4819L23.1938 19.98C23.0122 19.7377 22.6961 19.6393 22.4091 19.7352C22.1222 19.8312 21.9287 20.1003 21.9287 20.4035V27.5918C21.9287 27.981 22.2434 28.2964 22.6318 28.2964C23.0202 28.2964 23.335 27.9809 23.335 27.5918V22.5133L27.463 28.0151C27.5982 28.1956 27.8081 28.2964 28.025 28.2964C28.0993 28.2964 28.1744 28.2846 28.2476 28.26C28.5345 28.164 28.7281 27.8949 28.7281 27.5917V20.4034C28.728 20.0143 28.4133 19.6988 28.0249 19.6988Z" fill="#454056"/>
<path d="M63.3687 19.6988C62.9803 19.6988 62.6656 20.0143 62.6656 20.4034V25.4819L58.5376 19.98C58.3559 19.7377 58.0398 19.6393 57.7529 19.7352C57.4661 19.8312 57.2725 20.1003 57.2725 20.4035V27.5918C57.2725 27.981 57.5872 28.2964 57.9756 28.2964C58.364 28.2964 58.6787 27.9809 58.6787 27.5918V22.5133L62.8067 28.0151C62.942 28.1956 63.1519 28.2964 63.3687 28.2964C63.4431 28.2964 63.5182 28.2846 63.5914 28.26C63.8783 28.164 64.0719 27.8949 64.0719 27.5917V20.4034C64.0719 20.0143 63.7571 19.6988 63.3687 19.6988Z" fill="#454056"/>
<path d="M31.1265 19.6988C30.7381 19.6988 30.4233 20.0143 30.4233 20.4034V27.5917C30.4233 27.9809 30.7381 28.2963 31.1265 28.2963C31.5149 28.2963 31.8296 27.9808 31.8296 27.5917V20.4034C31.8296 20.0143 31.5149 19.6988 31.1265 19.6988Z" fill="#454056"/>
<path d="M36.0394 21.109H39.6392C40.0276 21.109 40.3424 20.7935 40.3424 20.4044C40.3424 20.0152 40.0276 19.6998 39.6392 19.6998H36.0394C34.6629 19.6998 33.5431 20.822 33.5431 22.2015C33.5431 23.581 34.663 24.7032 36.0394 24.7032H37.846C38.447 24.7032 38.9359 25.1932 38.9359 25.7956C38.9359 26.398 38.4469 26.8879 37.846 26.8879H34.2461C33.8577 26.8879 33.543 27.2034 33.543 27.5925C33.543 27.9818 33.8577 28.2972 34.2461 28.2972H37.846C39.2225 28.2972 40.3423 27.175 40.3423 25.7956C40.3423 24.4161 39.2224 23.2939 37.846 23.2939H36.0394C35.4383 23.2939 34.9494 22.8038 34.9494 22.2016C34.9494 21.5989 35.4383 21.109 36.0394 21.109Z" fill="#454056"/>
<path d="M43.9779 21.109H47.5777C47.9661 21.109 48.2808 20.7935 48.2808 20.4044C48.2808 20.0152 47.9661 19.6998 47.5777 19.6998H43.9779C42.6014 19.6998 41.4815 20.822 41.4815 22.2015C41.4815 23.581 42.6015 24.7032 43.9779 24.7032H45.7845C46.3855 24.7032 46.8744 25.1932 46.8744 25.7956C46.8744 26.398 46.3854 26.8879 45.7845 26.8879H42.1846C41.7962 26.8879 41.4814 27.2034 41.4814 27.5925C41.4814 27.9818 41.7962 28.2972 42.1846 28.2972H45.7845C47.161 28.2972 48.2807 27.175 48.2807 25.7956C48.2807 24.4161 47.1609 23.2939 45.7845 23.2939H43.9779C43.3768 23.2939 42.8879 22.8038 42.8879 22.2016C42.8877 21.5989 43.3768 21.109 43.9779 21.109Z" fill="#454056"/>
<path d="M52.8196 19.6988C50.9449 19.6988 49.4199 21.2272 49.4199 23.1058V27.5917C49.4199 27.9809 49.7346 28.2963 50.123 28.2963C50.5115 28.2963 50.8262 27.9808 50.8262 27.5917V24.7022H54.8129V27.5917C54.8129 27.9809 55.1276 28.2963 55.516 28.2963C55.9044 28.2963 56.2191 27.9808 56.2191 27.5917V23.1058C56.2191 21.2271 54.6941 19.6988 52.8196 19.6988ZM50.8262 23.293V23.1058C50.8262 22.0044 51.7204 21.1081 52.8196 21.1081C53.9187 21.1081 54.813 22.0043 54.813 23.1058V23.293H50.8262Z" fill="#454056"/>
</g>
</svg>
