<svg width="86" height="48" viewBox="0 0 86 48" fill="none" xmlns="http://www.w3.org/2000/svg">
<g opacity="0.4">
<path d="M43 3.1875C31.5048 3.1875 22.1875 12.5057 22.1875 24C22.1875 35.4943 31.5048 44.8125 43 44.8125C54.4943 44.8125 63.8125 35.4943 63.8125 24C63.8125 12.5057 54.4943 3.1875 43 3.1875ZM43 40.9404C33.6586 40.9404 26.0596 33.3414 26.0596 24C26.0596 14.6586 33.6586 7.05956 43 7.05956C52.3405 7.05956 59.9404 14.6586 59.9404 24C59.9404 33.3414 52.3405 40.9404 43 40.9404Z" fill="#EFECF3"/>
<path d="M43 3.1875C31.5048 3.1875 22.1875 12.5057 22.1875 24C22.1875 35.4943 31.5048 44.8125 43 44.8125C54.4943 44.8125 63.8125 35.4943 63.8125 24C63.8125 12.5057 54.4943 3.1875 43 3.1875ZM43 40.9404C33.6586 40.9404 26.0596 33.3414 26.0596 24C26.0596 14.6586 33.6586 7.05956 43 7.05956C52.3405 7.05956 59.9404 14.6586 59.9404 24C59.9404 33.3414 52.3405 40.9404 43 40.9404Z" fill="#EFECF3"/>
<path d="M43.0001 3.1875C42.5938 3.1875 42.1905 3.20044 41.79 3.22341C52.721 3.85022 61.3925 12.912 61.3925 24C61.3925 35.088 52.721 44.1498 41.79 44.7766C42.1905 44.7996 42.5938 44.8125 43.0001 44.8125C54.4944 44.8125 63.8126 35.4943 63.8126 24C63.8126 12.5057 54.4944 3.1875 43.0001 3.1875Z" fill="#9691A4"/>
<path d="M66.99 25.4555L66.4509 27.773C66.4096 27.9474 66.2531 28.0712 66.0721 28.0712H33.4587C33.3002 28.0712 33.168 27.9624 33.1324 27.8143C33.1259 27.789 33.123 27.7627 33.123 27.7355C33.123 27.6436 33.1605 27.5593 33.2215 27.4993C33.2309 27.489 33.2421 27.4796 33.2534 27.4712L37.9314 23.5077C38.0632 23.3959 37.9866 23.1805 37.8138 23.1771L19.3814 22.8211C19.1114 22.8165 18.9285 22.5465 19.027 22.2971L20.0217 19.7827C20.0798 19.6364 20.2214 19.5399 20.3798 19.538L46.9933 19.2493L52.0294 19.1949C52.1757 19.1949 52.2994 19.2877 52.3454 19.4171C52.3585 19.4518 52.3651 19.4902 52.3651 19.5296C52.3651 19.6177 52.3313 19.6974 52.276 19.7564L52.2432 19.7883C52.2422 19.7893 52.2413 19.7902 52.2404 19.7902L47.5303 24.2734C47.409 24.3888 47.4883 24.5933 47.6557 24.5967L66.6196 24.9849C66.8653 24.9905 67.0453 25.2183 66.99 25.4555Z" fill="#BBB7C5"/>
<path d="M52.3449 19.4171L51.7327 19.6852L33.7366 27.5508L33.1319 27.8143C33.1254 27.789 33.1226 27.7627 33.1226 27.7355C33.1226 27.6437 33.1601 27.5593 33.221 27.4993C33.2304 27.489 33.2416 27.4796 33.2529 27.4712L37.931 23.5074C37.9966 23.4521 38.0107 23.3705 37.9863 23.3021L46.9928 19.2493L52.0289 19.1949C52.1752 19.1949 52.2989 19.2877 52.3449 19.4171Z" fill="#EFECF3"/>
<path d="M52.3654 19.5344C52.3654 19.6225 52.3317 19.7022 52.2764 19.7612L52.2436 19.7931C52.2426 19.7941 52.2417 19.795 52.2408 19.795L47.5308 24.2781C47.4708 24.3353 47.4595 24.4141 47.4839 24.4797L41.7952 28.0759H33.4591C33.3006 28.0759 33.1684 27.9672 33.1328 27.8191L33.7375 27.5556L51.7336 19.69L52.3458 19.4219C52.3589 19.4566 52.3654 19.495 52.3654 19.5344Z" fill="#9691A4"/>
</g>
</svg>
