<svg width="18" height="18" viewBox="0 0 18 18" fill="none" xmlns="http://www.w3.org/2000/svg">
<path fill-rule="evenodd" clip-rule="evenodd" d="M3.16669 3.16679C2.94567 3.16679 2.73371 3.25459 2.57743 3.41087C2.42619 3.5621 2.33909 3.76549 2.33363 3.97876C2.52529 7.01537 3.81801 9.87822 5.96997 12.0302C8.12192 14.1821 10.9848 15.4749 14.0214 15.6665C14.2347 15.661 14.438 15.5739 14.5893 15.4227C14.7456 15.2664 14.8334 15.0545 14.8334 14.8335V12.0643L11.8495 10.8708L10.9646 12.3455C10.7415 12.7174 10.2704 12.856 9.88143 12.6642C7.90731 11.6906 6.30957 10.0928 5.33597 8.11872C5.14414 7.72975 5.28272 7.25868 5.65461 7.03554L7.12938 6.15068L5.93583 3.16679H3.16669ZM1.39892 2.23236C1.86776 1.76351 2.50365 1.50012 3.16669 1.50012H6.50002C6.84077 1.50012 7.1472 1.70758 7.27375 2.02396L8.94042 6.19063C9.09232 6.57039 8.94616 7.00426 8.59543 7.2147L7.20043 8.0517C7.88699 9.17138 8.82876 10.1132 9.94844 10.7997L10.7854 9.40471C10.9959 9.05398 11.4298 8.90782 11.8095 9.05972L15.9762 10.7264C16.2926 10.8529 16.5 11.1594 16.5 11.5001V14.8335C16.5 15.4965 16.2366 16.1324 15.7678 16.6012C15.2989 17.0701 14.6631 17.3335 14 17.3335C13.9832 17.3335 13.9663 17.3329 13.9495 17.3319C10.4957 17.122 7.23815 15.6554 4.79146 13.2087C2.34476 10.762 0.878109 7.50445 0.668222 4.05067C0.667199 4.03384 0.666687 4.01698 0.666687 4.00012C0.666687 3.33708 0.930079 2.7012 1.39892 2.23236Z" fill="white"/>
<path fill-rule="evenodd" clip-rule="evenodd" d="M10.6667 4.83346C10.6667 4.37322 11.0398 4.00012 11.5 4.00012C12.1631 4.00012 12.7989 4.26351 13.2678 4.73236C13.7366 5.2012 14 5.83708 14 6.50012C14 6.96036 13.6269 7.33346 13.1667 7.33346C12.7064 7.33346 12.3334 6.96036 12.3334 6.50012C12.3334 6.27911 12.2456 6.06715 12.0893 5.91087C11.933 5.75459 11.721 5.66679 11.5 5.66679C11.0398 5.66679 10.6667 5.29369 10.6667 4.83346Z" fill="white"/>
<path fill-rule="evenodd" clip-rule="evenodd" d="M10.6667 1.50008C10.6667 1.03984 11.0398 0.666748 11.5 0.666748C13.0471 0.666748 14.5308 1.28133 15.6248 2.37529C16.7188 3.46925 17.3334 4.95299 17.3334 6.50008C17.3334 6.96032 16.9603 7.33342 16.5 7.33342C16.0398 7.33342 15.6667 6.96032 15.6667 6.50008C15.6667 5.39501 15.2277 4.3352 14.4463 3.5538C13.6649 2.7724 12.6051 2.33341 11.5 2.33341C11.0398 2.33341 10.6667 1.96032 10.6667 1.50008Z" fill="white"/>
</svg>
