<svg width="14" height="16" viewBox="0 0 14 16" fill="none" xmlns="http://www.w3.org/2000/svg">
<path fill-rule="evenodd" clip-rule="evenodd" d="M6.99998 5.2499C6.17156 5.2499 5.49998 5.92147 5.49998 6.7499C5.49998 7.57833 6.17156 8.2499 6.99998 8.2499C7.82841 8.2499 8.49998 7.57833 8.49998 6.7499C8.49998 5.92147 7.82841 5.2499 6.99998 5.2499ZM3.99998 6.7499C3.99998 5.09305 5.34313 3.7499 6.99998 3.7499C8.65684 3.7499 9.99998 5.09305 9.99998 6.7499C9.99998 8.40675 8.65684 9.7499 6.99998 9.7499C5.34313 9.7499 3.99998 8.40675 3.99998 6.7499Z" fill="white"/>
<path fill-rule="evenodd" clip-rule="evenodd" d="M7 1.50009C5.96166 1.50009 4.94664 1.80799 4.08329 2.38486C3.21994 2.96172 2.54703 3.78164 2.14966 4.74094C1.75229 5.70024 1.64831 6.75582 1.85086 7.77422C2.05341 8.79261 2.5534 9.72807 3.2876 10.4623L6.47031 13.6443C6.61095 13.7848 6.8016 13.8637 7.00038 13.8637C7.19916 13.8637 7.38981 13.7848 7.53044 13.6443L10.7124 10.4623C11.4466 9.72807 11.9466 8.7926 12.1491 7.77422C12.3517 6.75582 12.2477 5.70024 11.8503 4.74094C11.453 3.78164 10.7801 2.96172 9.91672 2.38486C9.05337 1.80799 8.03834 1.50009 7 1.50009ZM11.7731 11.5229C12.7171 10.5789 13.3599 9.37618 13.6203 8.06682C13.8808 6.75746 13.7471 5.40028 13.2362 4.1669C12.7253 2.93352 11.8601 1.87933 10.7501 1.13765C9.64004 0.395963 8.33501 9.15527e-05 7 9.15527e-05C5.66499 9.15527e-05 4.35996 0.395963 3.24994 1.13765C2.13992 1.87933 1.27475 2.93352 0.763849 4.1669C0.252948 5.40028 0.119255 6.75746 0.379677 8.06682C0.640099 9.37618 1.28294 10.5789 2.22691 11.5229L5.40999 14.7053C5.83188 15.1267 6.40403 15.3637 7.00038 15.3637C7.59672 15.3637 8.16867 15.1269 8.59056 14.7055L11.7731 11.5229Z" fill="white"/>
</svg>
