<svg width="86" height="48" viewBox="0 0 86 48" fill="none" xmlns="http://www.w3.org/2000/svg">
<g opacity="0.4">
<path d="M62.6382 23.8134L49.1212 0.188437C49.0548 0.0721875 48.9304 0 48.7966 0H37.2046C37.0708 0 36.9463 0.0721875 36.8798 0.188437L23.3628 23.8134C23.2964 23.9287 23.2964 24.0712 23.3628 24.1866L36.8798 47.8116C36.8882 47.8256 36.8967 47.8397 36.906 47.8519C36.906 47.8528 36.9069 47.8528 36.9069 47.8528C36.9368 47.8922 36.9743 47.9241 37.0155 47.9484C37.0594 47.9747 37.1081 47.9906 37.1596 47.9963C37.1746 47.9991 37.1895 48 37.2045 48H48.7966C48.9303 48 49.0548 47.9278 49.1212 47.8116L62.6382 24.1866C62.7047 24.0712 62.7047 23.9287 62.6382 23.8134ZM36.2304 24.1772C36.1714 24.0666 36.1714 23.9334 36.2304 23.8228L43.0006 11.2059L49.7707 23.8228C49.8297 23.9334 49.8297 24.0666 49.7707 24.1772L43.0006 36.7941L36.2304 24.1772Z" fill="#EFECF3"/>
<path d="M48.7964 0H46.6055L60.3369 24L46.6055 48H48.7964C48.9306 48 49.0544 47.9281 49.1212 47.8115L62.638 24.1865C62.7041 24.071 62.7041 23.929 62.638 23.8135L49.1212 0.188531C49.0544 0.0719062 48.9306 0 48.7964 0Z" fill="#9691A4"/>
<path d="M48.7897 0.414375L47.8474 2.17125L44.2035 8.9625L42.9992 11.2059L36.229 23.8228C36.1691 23.9334 36.1691 24.0666 36.229 24.1772L42.9992 36.7941L41.7949 39.0375L38.0275 46.0594V46.0603L37.2218 47.5612L37.0141 47.9484L37.0028 47.9681C36.9729 47.9503 36.9476 47.9259 36.9279 47.8978C36.9242 47.8913 36.9204 47.8856 36.9167 47.8791L36.8783 47.8116L23.3614 24.1866C23.2949 24.0712 23.2949 23.9287 23.3614 23.8134L36.8783 0.188437C36.9448 0.0721875 37.0692 0 37.2031 0H48.5425C48.755 0 48.8907 0.226875 48.7897 0.414375Z" fill="#EFECF3"/>
<path d="M48.7897 0.414375L47.8474 2.17125L44.2035 8.9625L42.9992 11.2059L36.229 23.8228C36.1691 23.9334 36.1691 24.0666 36.229 24.1772L42.9992 36.7941L41.7949 39.0375L38.0275 46.0594V46.0603L37.2218 47.5612L37.0141 47.9484L37.0028 47.9681C36.9729 47.9503 36.9476 47.9259 36.9279 47.8978C36.9242 47.8913 36.9204 47.8856 36.9167 47.8791L36.8783 47.8116L23.3614 24.1866C23.2949 24.0712 23.2949 23.9287 23.3614 23.8134L36.8783 0.188437C36.9448 0.0721875 37.0692 0 37.2031 0H48.5425C48.755 0 48.8907 0.226875 48.7897 0.414375Z" fill="#F5F4F8"/>
<path d="M46.6048 0L33.822 23.8224C33.7625 23.9333 33.7625 24.0667 33.822 24.1776L41.7958 39.0378L42.9998 36.7939L36.2298 24.1776C36.1702 24.0667 36.1702 23.9333 36.2298 23.8224L48.7902 0.414469C48.8908 0.227062 48.7554 0 48.543 0H46.6048Z" fill="#9691A4"/>
<path d="M52.1786 24.1763L39.3953 47.9991H37.1214C37.0793 47.9991 37.0391 47.9869 37.0044 47.9673L37.0156 47.9476L37.2234 47.5604L38.0291 46.0594V46.0585L41.7964 39.0366L43.0007 36.7932L49.7709 24.1763C49.8298 24.0657 49.8298 23.9326 49.7709 23.822L43.0007 11.2051L44.205 8.96167L52.1786 23.822C52.2385 23.9326 52.2385 24.0657 52.1786 24.1763Z" fill="#BBB7C5"/>
</g>
</svg>
