<svg width="14" height="14" viewBox="0 0 14 14" fill="none" xmlns="http://www.w3.org/2000/svg">
<path fill-rule="evenodd" clip-rule="evenodd" d="M13.4711 0.527312C13.7315 0.787662 13.7315 1.20977 13.4711 1.47012L6.13778 8.80346C5.87743 9.0638 5.45532 9.0638 5.19497 8.80346C4.93462 8.54311 4.93462 8.121 5.19497 7.86065L12.5283 0.527312C12.7887 0.266963 13.2108 0.266963 13.4711 0.527312Z" fill="white"/>
<path fill-rule="evenodd" clip-rule="evenodd" d="M13.4711 0.527312C13.6539 0.710084 13.7145 0.982034 13.6268 1.22515L9.29342 13.2251C9.28715 13.2425 9.28015 13.2596 9.27245 13.2764C9.19002 13.4563 9.05767 13.6088 8.89115 13.7156C8.72463 13.8225 8.53092 13.8793 8.33306 13.8793C8.13519 13.8793 7.94148 13.8225 7.77496 13.7156C7.61242 13.6113 7.48245 13.4636 7.39966 13.2893L5.16948 8.82895L0.709137 6.59878C0.53485 6.516 0.387127 6.38602 0.282815 6.22348C0.175949 6.05696 0.119141 5.86325 0.119141 5.66538C0.119141 5.46752 0.175949 5.27381 0.282815 5.10729C0.389681 4.94076 0.542111 4.80842 0.72199 4.72599C0.738792 4.71829 0.755908 4.71129 0.773292 4.70501L12.7733 0.371681C13.0164 0.28389 13.2883 0.34454 13.4711 0.527312ZM1.91423 5.71061L5.96453 7.73577C6.09355 7.80027 6.19816 7.90489 6.26267 8.03391L8.28782 12.0842L11.8903 2.10815L1.91423 5.71061Z" fill="white"/>
</svg>
