<svg width="12" height="12" viewBox="0 0 12 12" fill="none" xmlns="http://www.w3.org/2000/svg">
<path fill-rule="evenodd" clip-rule="evenodd" d="M2.50002 4.83341C1.85569 4.83341 1.33335 5.35575 1.33335 6.00008C1.33335 6.64441 1.85569 7.16675 2.50002 7.16675C3.14435 7.16675 3.66669 6.64441 3.66669 6.00008C3.66669 5.35575 3.14435 4.83341 2.50002 4.83341ZM0.166687 6.00008C0.166687 4.71142 1.21136 3.66675 2.50002 3.66675C3.78868 3.66675 4.83335 4.71142 4.83335 6.00008C4.83335 7.28875 3.78868 8.33341 2.50002 8.33341C1.21136 8.33341 0.166687 7.28875 0.166687 6.00008Z" fill="#FD5631"/>
<path fill-rule="evenodd" clip-rule="evenodd" d="M9.50002 1.33341C8.85569 1.33341 8.33335 1.85575 8.33335 2.50008C8.33335 3.14441 8.85569 3.66675 9.50002 3.66675C10.1444 3.66675 10.6667 3.14441 10.6667 2.50008C10.6667 1.85575 10.1444 1.33341 9.50002 1.33341ZM7.16669 2.50008C7.16669 1.21142 8.21136 0.166748 9.50002 0.166748C10.7887 0.166748 11.8334 1.21142 11.8334 2.50008C11.8334 3.78875 10.7887 4.83342 9.50002 4.83342C8.21136 4.83342 7.16669 3.78875 7.16669 2.50008Z" fill="#FD5631"/>
<path fill-rule="evenodd" clip-rule="evenodd" d="M9.50002 8.33341C8.85569 8.33341 8.33335 8.85575 8.33335 9.50008C8.33335 10.1444 8.85569 10.6667 9.50002 10.6667C10.1444 10.6667 10.6667 10.1444 10.6667 9.50008C10.6667 8.85575 10.1444 8.33341 9.50002 8.33341ZM7.16669 9.50008C7.16669 8.21142 8.21136 7.16675 9.50002 7.16675C10.7887 7.16675 11.8334 8.21142 11.8334 9.50008C11.8334 10.7887 10.7887 11.8334 9.50002 11.8334C8.21136 11.8334 7.16669 10.7887 7.16669 9.50008Z" fill="#FD5631"/>
<path fill-rule="evenodd" clip-rule="evenodd" d="M8.44359 2.99128C8.59113 3.27768 8.47856 3.62945 8.19216 3.77699L4.34216 5.76032C4.05576 5.90786 3.70399 5.79529 3.55645 5.5089C3.40891 5.2225 3.52148 4.87073 3.80788 4.72319L7.65788 2.73985C7.94428 2.59232 8.29605 2.70488 8.44359 2.99128Z" fill="#FD5631"/>
<path fill-rule="evenodd" clip-rule="evenodd" d="M3.55645 6.49128C3.70399 6.20489 4.05576 6.09232 4.34216 6.23986L8.19216 8.22319C8.47856 8.37073 8.59113 8.7225 8.44359 9.0089C8.29605 9.2953 7.94428 9.40786 7.65788 9.26033L3.80788 7.27699C3.52148 7.12945 3.40891 6.77768 3.55645 6.49128Z" fill="#FD5631"/>
</svg>
