<svg width="16" height="15" viewBox="0 0 16 15" fill="none" xmlns="http://www.w3.org/2000/svg">
<path fill-rule="evenodd" clip-rule="evenodd" d="M7.99529 0.168213C8.24905 0.168213 8.48081 0.31228 8.59311 0.539839L10.4953 4.39407L14.7482 5.01044C14.9995 5.04685 15.2083 5.22283 15.2867 5.4643C15.3651 5.70578 15.2996 5.97084 15.1176 6.14793L12.0357 9.14791L12.7624 13.3842C12.8053 13.6344 12.7024 13.8873 12.4969 14.0364C12.2914 14.1855 12.0191 14.205 11.7945 14.0867L7.9996 12.0869L4.19553 14.087C3.97091 14.2051 3.69873 14.1854 3.49343 14.0362C3.28812 13.8871 3.18531 13.6343 3.22822 13.3842L3.95491 9.14791L0.872943 6.14793C0.691012 5.97084 0.625462 5.70578 0.70388 5.4643C0.782297 5.22283 0.991066 5.04685 1.24233 5.01044L5.49531 4.39407L7.39746 0.539839C7.50977 0.31228 7.74152 0.168213 7.99529 0.168213Z" fill="#FDBC31"/>
</svg>
