<svg width="14" height="16" viewBox="0 0 14 16" fill="none" xmlns="http://www.w3.org/2000/svg">
<path fill-rule="evenodd" clip-rule="evenodd" d="M9.46967 0.71967C9.76256 0.426777 10.2374 0.426777 10.5303 0.71967L13.5303 3.71967C13.671 3.86032 13.75 4.05109 13.75 4.25C13.75 4.44891 13.671 4.63968 13.5303 4.78033L10.5303 7.78033C10.2374 8.07322 9.76256 8.07322 9.46967 7.78033C9.17678 7.48744 9.17678 7.01256 9.46967 6.71967L11.9393 4.25L9.46967 1.78033C9.17678 1.48744 9.17678 1.01256 9.46967 0.71967Z" fill="white"/>
<path fill-rule="evenodd" clip-rule="evenodd" d="M4.75 4.24999C4.75 3.83577 5.08579 3.49999 5.5 3.49999H13C13.4142 3.49999 13.75 3.83579 13.75 4.25C13.75 4.66421 13.4142 4.99999 13 4.99999H5.5C5.08579 4.99999 4.75 4.6642 4.75 4.24999Z" fill="white"/>
<path fill-rule="evenodd" clip-rule="evenodd" d="M4.53033 8.21966C4.82322 8.51255 4.82322 8.98742 4.53033 9.28032L2.06066 11.75L4.53033 14.2197C4.82322 14.5125 4.82322 14.9874 4.53033 15.2803C4.23744 15.5732 3.76256 15.5732 3.46967 15.2803L0.46967 12.2803C0.329018 12.1397 0.25 11.9489 0.25 11.75C0.25 11.5511 0.329018 11.3603 0.46967 11.2197L3.46967 8.21966C3.76256 7.92676 4.23744 7.92676 4.53033 8.21966Z" fill="white"/>
<path fill-rule="evenodd" clip-rule="evenodd" d="M0.25 11.75C0.25 11.3358 0.585786 11 1 11H7.75C8.16421 11 8.5 11.3358 8.5 11.75C8.5 12.1642 8.16421 12.5 7.75 12.5H1C0.585786 12.5 0.25 12.1642 0.25 11.75Z" fill="white"/>
</svg>
