<svg width="86" height="48" viewBox="0 0 86 48" fill="none" xmlns="http://www.w3.org/2000/svg">
<g opacity="0.4">
<path d="M43 7.96875C29.7445 7.96875 19 15.1462 19 24C19 32.8538 29.7445 40.0312 43 40.0312C56.2546 40.0312 67 32.8538 67 24C67 15.1462 56.2546 7.96875 43 7.96875ZM55.0463 14.2461C55.7533 14.7685 55.7513 15.8106 55.0425 16.3321C54.0757 17.0419 52.372 17.885 50.0155 18.4992C49.9701 18.3351 49.9228 18.1718 49.8725 18.0115C48.8111 14.5648 46.8448 12.022 44.4969 11.2533C49.7925 11.5053 53.4412 13.0582 55.0463 14.2461ZM38.8742 22.618C40.1992 22.7687 41.5833 22.8488 43 22.8488C44.4167 22.8488 45.7998 22.7687 47.1249 22.618C47.1539 23.0323 47.1693 23.4592 47.1693 23.8967C47.1693 29.5182 44.6593 33.248 43 33.248C41.3398 33.248 38.8297 29.5183 38.8297 23.8967C38.8297 23.4592 38.8452 23.0323 38.8742 22.618ZM46.5097 19.1482C45.4232 19.2757 44.2517 19.348 43 19.348C42.5885 19.348 42.1859 19.3403 41.7928 19.3249C41.7889 19.3249 41.786 19.3249 41.7831 19.3239C40.9805 19.294 40.2166 19.2332 39.4893 19.1482C40.347 16.2722 41.87 14.5445 43 14.5445C44.129 14.5445 45.6521 16.2722 46.5097 19.1482ZM30.9565 14.2344C32.1956 13.3247 34.6468 12.1948 38.1295 11.6106C38.1884 11.6009 38.2492 11.5903 38.3101 11.5807C39.2952 11.4223 40.3605 11.3074 41.503 11.2533C39.0451 12.0578 37.0063 14.8053 35.9844 18.4983C33.624 17.8822 31.9184 17.0352 30.9527 16.3206C30.2457 15.7971 30.2477 14.755 30.9565 14.2344ZM44.4535 36.9544C44.3724 36.9592 44.2912 36.9621 44.2101 36.965H44.2072C43.8074 36.9814 43.4046 36.9892 43 36.9892C31.9175 36.9892 22.5551 31.0412 22.5551 24C22.5551 21.2814 23.9497 18.727 26.3004 16.615C27.1358 18.9483 30.631 20.9589 35.3557 22.028C35.3016 22.6383 35.2746 23.2622 35.2746 23.8967C35.2746 31.0133 38.7332 36.7825 43 36.7825C47.2659 36.7825 50.7244 31.0133 50.7244 23.8967C50.7244 23.2622 50.6974 22.6383 50.6433 22.028C55.368 20.9589 58.8633 18.9483 59.6987 16.615C62.0484 18.7271 63.444 21.2814 63.444 24C63.444 30.7312 54.888 36.4628 44.4535 36.9544ZM49.8726 18.0114C49.9161 18.1756 49.9634 18.3388 50.0156 18.4991C49.9701 18.335 49.9228 18.1717 49.8726 18.0114Z" fill="#EFECF3"/>
<path d="M30.9527 16.3188C31.9185 17.0335 33.6241 17.8804 35.9844 18.4965C31.8934 18.3324 29.7042 17.1416 29.012 16.4817C28.3199 15.8218 28.5607 14.7533 29.2696 14.2328C30.8766 13.0527 32.7867 12.3371 38.3101 11.5789C38.2492 11.5886 38.1884 11.5992 38.1295 11.6088C34.6469 12.1931 32.1957 13.323 30.9565 14.2327C30.2477 14.7534 30.2457 15.7954 30.9527 16.3188Z" fill="#9691A4"/>
<path d="M43.0008 7.96875C42.5959 7.96875 42.1935 7.97569 41.7935 7.98891C54.4871 8.409 64.5862 15.4165 64.5862 24C64.5862 32.5835 54.4871 39.591 41.7935 40.0111C42.1935 40.0243 42.5959 40.0312 43.0008 40.0312C56.2553 40.0312 67.0008 32.8538 67.0008 24C67.0008 15.1462 56.2553 7.96875 43.0008 7.96875Z" fill="#9691A4"/>
<path d="M50.6435 22.0272C50.6976 22.6375 50.7246 23.2614 50.7246 23.8959C50.7246 31.0124 47.2661 36.7817 43.0002 36.7817C42.5898 36.7817 42.1861 36.7276 41.793 36.6243C45.4852 35.6576 48.2232 32.2573 48.2232 25.8264C48.2232 25.8196 48.3101 23.8833 48.3101 23.8766C48.3092 22.8123 49.5936 22.2077 50.6435 22.0272Z" fill="#9691A4"/>
<path d="M50.0164 18.4989C49.9463 18.5259 49.8675 18.5481 49.7821 18.5659C48.68 18.7965 47.5641 18.1847 47.1398 17.1418C45.9185 14.1402 43.6494 11.9555 41.5039 11.253C42.5905 10.9865 43.5128 11.0936 44.4979 11.253C46.8458 12.0217 48.8121 14.5645 49.8735 18.0112C49.917 18.1754 49.9643 18.3386 50.0164 18.4989Z" fill="#9691A4"/>
</g>
</svg>
