<svg width="20" height="20" viewBox="0 0 20 20" fill="none" xmlns="http://www.w3.org/2000/svg">
<path d="M20 2.61719C20 1.17401 18.826 0 17.3828 0C15.9396 0 14.7656 1.17401 14.7656 2.61719C14.7656 3.7883 15.5389 4.7821 16.6016 5.1152V9.21875H10.8594V5.1152C11.922 4.7821 12.6953 3.7883 12.6953 2.61719C12.6953 1.17401 11.5213 0 10.0781 0C8.63495 0 7.46094 1.17401 7.46094 2.61719C7.46094 3.7883 8.23425 4.7821 9.29688 5.1152V9.21875H3.39844V5.1152C4.46106 4.7821 5.23438 3.7883 5.23438 2.61719C5.23438 1.17401 4.06036 0 2.61719 0C1.17401 0 0 1.17401 0 2.61719C0 3.7883 0.773315 4.7821 1.83594 5.1152V14.8848C0.773315 15.2179 0 16.2117 0 17.3828C0 18.826 1.17401 20 2.61719 20C4.06036 20 5.23438 18.826 5.23438 17.3828C5.23438 16.2117 4.46106 15.2179 3.39844 14.8848V10.7812H9.29688V14.8848C8.23425 15.2179 7.46094 16.2117 7.46094 17.3828C7.46094 18.826 8.63495 20 10.0781 20C11.5213 20 12.6953 18.826 12.6953 17.3828C12.6953 16.2117 11.922 15.2179 10.8594 14.8848V10.7812H18.1641V5.1152C19.2267 4.7821 20 3.7883 20 2.61719ZM10.0781 1.5625C10.6596 1.5625 11.1328 2.03568 11.1328 2.61719C11.1328 3.1987 10.6596 3.67188 10.0781 3.67188C9.49661 3.67188 9.02344 3.1987 9.02344 2.61719C9.02344 2.03568 9.49661 1.5625 10.0781 1.5625ZM2.61719 1.5625C3.1987 1.5625 3.67188 2.03568 3.67188 2.61719C3.67188 3.1987 3.1987 3.67188 2.61719 3.67188C2.03568 3.67188 1.5625 3.1987 1.5625 2.61719C1.5625 2.03568 2.03568 1.5625 2.61719 1.5625ZM2.61719 18.4375C2.03568 18.4375 1.5625 17.9643 1.5625 17.3828C1.5625 16.8013 2.03568 16.3281 2.61719 16.3281C3.1987 16.3281 3.67188 16.8013 3.67188 17.3828C3.67188 17.9643 3.1987 18.4375 2.61719 18.4375ZM10.0781 18.4375C9.49661 18.4375 9.02344 17.9643 9.02344 17.3828C9.02344 16.8013 9.49661 16.3281 10.0781 16.3281C10.6596 16.3281 11.1328 16.8013 11.1328 17.3828C11.1328 17.9643 10.6596 18.4375 10.0781 18.4375ZM17.3828 3.67188C16.8013 3.67188 16.3281 3.1987 16.3281 2.61719C16.3281 2.03568 16.8013 1.5625 17.3828 1.5625C17.9643 1.5625 18.4375 2.03568 18.4375 2.61719C18.4375 3.1987 17.9643 3.67188 17.3828 3.67188Z" fill="white"/>
</svg>
