<svg width="10" height="14" viewBox="0 0 10 14" fill="none" xmlns="http://www.w3.org/2000/svg">
<path fill-rule="evenodd" clip-rule="evenodd" d="M5.00014 1.66659C3.89557 1.66659 3.00014 2.56202 3.00014 3.66658C3.00014 4.77115 3.89557 5.66658 5.00014 5.66658C6.10471 5.66658 7.00014 4.77115 7.00014 3.66658C7.00014 2.56202 6.10471 1.66659 5.00014 1.66659ZM1.6668 3.66658C1.6668 1.82564 3.15919 0.333252 5.00014 0.333252C6.84109 0.333252 8.33347 1.82564 8.33347 3.66658C8.33347 5.50753 6.84109 6.99992 5.00014 6.99992C3.15919 6.99992 1.6668 5.50753 1.6668 3.66658Z" fill="white"/>
<path fill-rule="evenodd" clip-rule="evenodd" d="M3.66683 9.66659C3.1364 9.66659 2.62769 9.8773 2.25262 10.2524C1.87754 10.6274 1.66683 11.1362 1.66683 11.6666V12.9999C1.66683 13.3681 1.36835 13.6666 1.00016 13.6666C0.631973 13.6666 0.333496 13.3681 0.333496 12.9999V11.6666C0.333496 10.7825 0.684685 9.93468 1.30981 9.30956C1.93493 8.68444 2.78277 8.33325 3.66683 8.33325H6.3335C7.21755 8.33325 8.0654 8.68444 8.69052 9.30956C9.31564 9.93468 9.66683 10.7825 9.66683 11.6666V12.9999C9.66683 13.3681 9.36835 13.6666 9.00016 13.6666C8.63197 13.6666 8.3335 13.3681 8.3335 12.9999V11.6666C8.3335 11.1362 8.12278 10.6274 7.74771 10.2524C7.37264 9.8773 6.86393 9.66659 6.3335 9.66659H3.66683Z" fill="white"/>
</svg>
