<svg width="10" height="14" viewBox="0 0 10 14" fill="none" xmlns="http://www.w3.org/2000/svg">
<path fill-rule="evenodd" clip-rule="evenodd" d="M4.99989 1.66659C3.89532 1.66659 2.99989 2.56202 2.99989 3.66658C2.99989 4.77115 3.89532 5.66658 4.99989 5.66658C6.10446 5.66658 6.99989 4.77115 6.99989 3.66658C6.99989 2.56202 6.10446 1.66659 4.99989 1.66659ZM1.66656 3.66658C1.66656 1.82564 3.15894 0.333252 4.99989 0.333252C6.84084 0.333252 8.33323 1.82564 8.33323 3.66658C8.33323 5.50753 6.84084 6.99992 4.99989 6.99992C3.15894 6.99992 1.66656 5.50753 1.66656 3.66658Z" fill="white"/>
<path fill-rule="evenodd" clip-rule="evenodd" d="M3.66659 9.66659C3.13615 9.66659 2.62744 9.8773 2.25237 10.2524C1.8773 10.6274 1.66659 11.1362 1.66659 11.6666V12.9999C1.66659 13.3681 1.36811 13.6666 0.999919 13.6666C0.631729 13.6666 0.333252 13.3681 0.333252 12.9999V11.6666C0.333252 10.7825 0.684441 9.93468 1.30956 9.30956C1.93468 8.68444 2.78253 8.33325 3.66659 8.33325H6.33325C7.21731 8.33325 8.06515 8.68444 8.69027 9.30956C9.3154 9.93468 9.66659 10.7825 9.66659 11.6666V12.9999C9.66659 13.3681 9.36811 13.6666 8.99992 13.6666C8.63173 13.6666 8.33325 13.3681 8.33325 12.9999V11.6666C8.33325 11.1362 8.12254 10.6274 7.74747 10.2524C7.37239 9.8773 6.86368 9.66659 6.33325 9.66659H3.66659Z" fill="white"/>
</svg>
