<svg width="116" height="32" viewBox="0 0 116 32" fill="none" xmlns="http://www.w3.org/2000/svg">
<path d="M42.0128 24.3956C41.8064 24.1892 41.7031 23.9139 41.7031 23.6042V8.2236C41.7031 7.91393 41.8064 7.63866 42.0128 7.3978C42.2193 7.15694 42.4945 7.05371 42.8042 7.05371H52.5763C52.8859 7.05371 53.1268 7.15694 53.3332 7.36339C53.5397 7.56984 53.6429 7.8107 53.6429 8.12038C53.6429 8.43006 53.5397 8.67092 53.3332 8.87737C53.1268 9.08382 52.8859 9.18704 52.5763 9.18704H43.9741V14.7268H51.6816C51.9913 14.7268 52.2322 14.8301 52.4386 15.0365C52.6451 15.243 52.7483 15.4838 52.7483 15.7935C52.7483 16.1032 52.6451 16.344 52.4386 16.5505C52.2322 16.7569 51.9913 16.8602 51.6816 16.8602H43.9741V23.5698C43.9741 23.8795 43.8709 24.1548 43.63 24.3612C43.3891 24.5677 43.1483 24.6709 42.8042 24.6709C42.4601 24.6709 42.2193 24.6021 42.0128 24.3956Z" fill="white"/>
<path d="M56.3614 8.80857C56.1205 8.56771 55.9829 8.25803 55.9829 7.91394V7.81072C55.9829 7.46663 56.1205 7.15695 56.3614 6.91609C56.6023 6.67523 56.9119 6.5376 57.256 6.5376H57.3937C57.7377 6.5376 58.0474 6.67523 58.2883 6.91609C58.5291 7.15695 58.6668 7.46663 58.6668 7.81072V7.91394C58.6668 8.25803 58.5291 8.56771 58.2883 8.80857C58.0474 9.04943 57.7377 9.18706 57.3937 9.18706H57.256C56.9119 9.18706 56.6367 9.04943 56.3614 8.80857ZM56.5334 24.3957C56.327 24.1892 56.2238 23.9139 56.2238 23.6043V12.8344C56.2238 12.5247 56.327 12.2494 56.5334 12.0086C56.7399 11.7677 57.0152 11.6645 57.3248 11.6645C57.6689 11.6645 57.9442 11.7677 58.1507 11.9742C58.3571 12.1806 58.4603 12.4559 58.4603 12.8V23.5699C58.4603 23.8795 58.3571 24.1548 58.1162 24.3613C57.8754 24.5677 57.6345 24.6709 57.2904 24.6709C57.0152 24.7053 56.7399 24.6021 56.5334 24.3957Z" fill="white"/>
<path d="M62.7613 24.3957C62.5549 24.1892 62.4517 23.914 62.4517 23.6043V12.8344C62.4517 12.5247 62.5549 12.2495 62.7613 12.0086C62.9678 11.7677 63.2431 11.6645 63.5527 11.6645C63.8624 11.6645 64.1377 11.7677 64.3785 12.0086C64.6194 12.2495 64.7226 12.4903 64.7226 12.8344V13.8667C65.342 13.1785 66.0302 12.5935 66.7871 12.1806C67.5097 11.7677 68.4043 11.5613 69.4022 11.5613C70.3312 11.5613 71.1226 11.7677 71.8108 12.215C72.499 12.6624 73.0151 13.2473 73.3592 14.0043C73.7033 14.7613 73.9097 15.5871 73.9097 16.4817V23.6043C73.9097 23.914 73.8065 24.1892 73.5656 24.3957C73.3248 24.6021 73.0839 24.7054 72.7398 24.7054C72.4301 24.7054 72.1549 24.6021 71.9484 24.3957C71.742 24.1892 71.6387 23.914 71.6387 23.6043V16.7226C71.6387 14.6925 70.7097 13.6602 68.8861 13.6602C68.0603 13.6602 67.3033 13.8667 66.6495 14.314C65.9957 14.7613 65.3764 15.3462 64.7914 16.0688V23.6043C64.7914 23.914 64.6882 24.1892 64.4474 24.3957C64.2065 24.6021 63.9656 24.7054 63.6215 24.7054C63.2431 24.7054 63.0022 24.6021 62.7613 24.3957Z" fill="white"/>
<path d="M80.0687 24.0514C79.1396 23.5353 78.3827 22.7439 77.7977 21.746C77.2128 20.7482 76.9375 19.5439 76.9375 18.2019C76.9375 16.86 77.2128 15.6557 77.7977 14.6579C78.3827 13.66 79.1396 12.8686 80.0687 12.3525C80.9977 11.8364 81.9956 11.5611 83.0278 11.5611C84.6794 11.5611 86.0902 12.1804 87.3289 13.4536V7.29442C87.3289 6.95033 87.4321 6.67506 87.673 6.46861C87.9138 6.26216 88.1547 6.15894 88.4988 6.15894C88.8085 6.15894 89.0837 6.26216 89.2902 6.50302C89.4966 6.74388 89.5999 6.98474 89.5999 7.32883V23.6041C89.5999 23.9138 89.4966 24.189 89.2902 24.3955C89.0837 24.6019 88.8085 24.7052 88.4988 24.7052C88.1891 24.7052 87.9138 24.6019 87.673 24.3955C87.4321 24.189 87.3289 23.9138 87.3289 23.6041V22.9503C86.1246 24.2234 84.6794 24.8428 83.0278 24.8428C81.9612 24.8428 80.9977 24.5675 80.0687 24.0514ZM85.5052 22.1933C86.1934 21.8493 86.7784 21.4019 87.2945 20.817V15.5525C86.7784 14.9675 86.1934 14.5202 85.5052 14.1761C84.8171 13.8321 84.0945 13.66 83.3375 13.66C82.0988 13.66 81.1009 14.0385 80.3439 14.8299C79.587 15.6213 79.2085 16.7224 79.2085 18.1675C79.2085 19.6127 79.587 20.7138 80.3439 21.5052C81.1009 22.2966 82.0988 22.6751 83.3375 22.6751C84.0945 22.7095 84.8171 22.5374 85.5052 22.1933Z" fill="white"/>
<path d="M94.4856 23.0882C93.3501 21.9183 92.7651 20.3011 92.7651 18.2021C92.7651 17.0322 92.9716 15.9312 93.4189 14.9333C93.8662 13.9355 94.52 13.1097 95.4146 12.4903C96.3092 11.871 97.4447 11.5613 98.7522 11.5613C99.9909 11.5613 101.058 11.8365 101.952 12.4215C102.847 13.0064 103.535 13.7634 104.017 14.7269C104.498 15.6903 104.705 16.7226 104.705 17.8581C104.705 18.1677 104.602 18.443 104.395 18.6495C104.189 18.8559 103.914 18.9591 103.569 18.9591H95.0705C95.2081 20.129 95.6555 21.0236 96.378 21.6774C97.1006 22.3312 98.1329 22.6409 99.4748 22.6409C100.163 22.6409 100.782 22.572 101.333 22.4344C101.849 22.2968 102.365 22.1247 102.881 21.8495C103.019 21.7806 103.157 21.7462 103.329 21.7462C103.604 21.7462 103.845 21.8495 104.017 22.0215C104.223 22.1935 104.326 22.4344 104.326 22.7097C104.326 23.0882 104.12 23.3978 103.673 23.6387C103.019 24.0172 102.365 24.2925 101.746 24.4645C101.126 24.6365 100.301 24.7398 99.3028 24.7398C97.2038 24.843 95.621 24.2581 94.4856 23.0882ZM102.468 17.1355C102.434 16.3097 102.193 15.6215 101.815 15.071C101.436 14.5204 100.989 14.1075 100.438 13.8667C99.8877 13.5914 99.3372 13.4882 98.7522 13.4882C98.1673 13.4882 97.6167 13.6258 97.0662 13.8667C96.5157 14.1419 96.0684 14.5204 95.6899 15.071C95.3114 15.6215 95.1049 16.3097 95.0705 17.1355H102.468Z" fill="white"/>
<path d="M108.077 24.3957C107.871 24.1892 107.768 23.914 107.768 23.6043V12.8344C107.768 12.5247 107.871 12.2494 108.077 12.0086C108.284 11.7677 108.559 11.6645 108.869 11.6645C109.178 11.6645 109.454 11.7677 109.694 12.0086C109.935 12.2494 110.039 12.4903 110.039 12.8344V13.901C111.208 12.3183 112.516 11.5269 113.961 11.5269H114.099C114.408 11.5269 114.684 11.6301 114.89 11.8365C115.097 12.043 115.2 12.3183 115.2 12.6279C115.2 12.9376 115.097 13.2129 114.89 13.4193C114.684 13.6258 114.408 13.729 114.064 13.729H113.892C113.101 13.729 112.344 13.9355 111.69 14.314C111.036 14.6924 110.451 15.243 110.004 15.9312V23.5699C110.004 23.8795 109.901 24.1548 109.66 24.3613C109.419 24.5677 109.178 24.6709 108.834 24.6709C108.559 24.7053 108.284 24.6021 108.077 24.3957Z" fill="white"/>
<path d="M16 32C24.8366 32 32 24.8366 32 16C32 7.16344 24.8366 0 16 0C7.16344 0 0 7.16344 0 16C0 24.8366 7.16344 32 16 32Z" fill="#FD5631"/>
<path opacity="0.55" d="M31.6561 19.3033L21.9873 9.63445C18.8217 6.46886 13.6948 6.46886 10.5292 9.63445L10.4948 9.66886C7.32921 12.8344 7.32921 17.9613 10.4948 21.1269L20.6797 31.3119C26.1851 29.6258 30.4518 25.0151 31.6561 19.3033Z" fill="#BE1E2D"/>
<path d="M26.3915 22.1938L23.2259 19.0282C23.8109 17.8927 24.1894 16.5507 24.1894 15.2088C24.1894 10.7357 20.5765 7.08838 16.0689 7.08838C11.5614 7.08838 7.98291 10.7357 7.98291 15.2432C7.98291 19.7507 11.5958 23.3637 16.1033 23.3637C17.4453 23.3637 18.7872 22.9852 19.9227 22.4002L23.0883 25.5658C24.0517 26.5292 25.4625 26.5292 26.4259 25.5658C27.2517 24.6024 27.2517 23.1572 26.3915 22.1938ZM16.1033 21.4368C12.6625 21.4368 9.90979 18.6841 9.90979 15.2432C9.90979 11.8024 12.6625 9.04967 16.1033 9.04967C19.5442 9.04967 22.2969 11.8024 22.2969 15.2432C22.2969 18.6841 19.5442 21.4368 16.1033 21.4368Z" fill="white"/>
</svg>
