<svg width="81" height="179" viewBox="0 0 81 179" fill="none" xmlns="http://www.w3.org/2000/svg">
<path fill-rule="evenodd" clip-rule="evenodd" d="M68.9615 171.758C61.9659 175.409 50.3207 178.078 40.9472 178.004C31.5289 178.051 19.9106 175.396 12.9157 171.728C10.0608 170.227 7.51382 168.084 7.33201 165.009C4.08051 117.676 4.07591 58.0316 7.3865 10.6548C7.61831 7.59156 9.99628 4.74966 13.0209 3.91767C22.2401 1.40537 31.654 0.0571241 41.0499 0.0704098C50.4458 0.0836954 59.8462 1.39814 69.0667 3.9477C72.1457 4.84515 74.4686 7.59212 74.7118 10.6887C77.9409 58.0819 77.9455 117.726 74.5959 165.021C74.3417 168.144 71.819 170.251 68.9615 171.758Z" fill="url(#paint0_linear_5762_39203)"/>
<path d="M27.1686 172.727C26.4976 173.034 26.2063 173.819 26.5802 174.5L27.1161 175.308C27.2947 175.577 27.5572 175.807 27.9484 175.879C32.2907 176.75 36.8289 177.281 40.9484 177.252C45.0455 177.282 49.551 176.776 53.9004 175.939C54.2749 175.868 54.549 175.693 54.7225 175.413L55.243 174.573C55.6125 173.953 55.3672 173.113 54.7135 172.81C54.5291 172.744 54.4062 172.7 54.1994 172.695L27.6661 172.7C27.5041 172.574 27.3364 172.65 27.1686 172.727Z" fill="url(#paint1_linear_5762_39203)"/>
<path d="M74.059 108.757L79.9272 105.831C80.536 105.498 81.0402 105.814 80.9129 106.524C80.5 110.771 79.1796 112.635 75.3261 113.875C74.6178 114.104 73.831 113.619 73.714 112.822L73.4293 109.7C73.5043 109.315 73.724 108.913 74.059 108.757Z" fill="#5D3CF2"/>
<path d="M80.9455 106.06C80.7917 105.73 80.4249 105.6 79.9829 105.855L74.1063 108.785C73.7709 108.941 73.5508 109.344 73.5368 109.751L80.9455 106.06Z" fill="#FD5631"/>
<path d="M7.89888 108.696L2.02509 105.852C1.43543 105.574 0.908814 105.869 1.01035 106.525C1.36066 110.779 2.68181 112.626 6.46288 113.831C7.19775 114.092 8.02179 113.558 8.08821 112.825L8.42211 109.708C8.45881 109.239 8.24358 108.887 7.89888 108.696Z" fill="#5D3CF2"/>
<path d="M1.02263 106.06C1.15944 105.694 1.53483 105.62 2.0032 105.856L7.89202 108.716C8.2376 108.908 8.45337 109.262 8.43935 109.673L1.02263 106.06Z" fill="#FD5631"/>
<path d="M73.246 83.487C73.2993 67.0222 72.7712 50.6229 71.8468 33.6028C71.7425 31.4451 70.0285 29.1214 67.7991 28.1862C50.3884 21.0621 31.7419 21.0192 14.2574 28.1638C12.0376 29.0788 10.3588 31.3503 10.2339 33.5627C9.25225 50.6525 8.70724 66.9412 8.71542 83.428C8.71083 95.2591 8.99693 107.058 9.46165 119.125C9.56599 121.283 11.1961 123.645 13.4255 124.58C31.3222 132.083 50.5276 132.121 68.4148 124.642C70.6346 123.727 72.3358 121.395 72.4607 119.183C72.9685 107.122 73.2414 95.3181 73.246 83.487Z" fill="url(#paint2_linear_5762_39203)"/>
<path d="M73.246 83.487C73.2993 67.0222 72.7712 50.6229 71.8468 33.6028C71.7425 31.4451 70.0285 29.1214 67.7991 28.1862C50.3884 21.0621 31.7419 21.0192 14.2574 28.1638C12.0376 29.0788 10.3588 31.3503 10.2339 33.5627C9.25225 50.6525 8.70724 66.9412 8.71542 83.428C8.71083 95.2591 8.99693 107.058 9.46165 119.125C9.56599 121.283 11.1961 123.645 13.4255 124.58C31.3222 132.083 50.5276 132.121 68.4148 124.642C70.6346 123.727 72.3358 121.395 72.4607 119.183C72.9685 107.122 73.2414 95.3181 73.246 83.487Z" fill="#1F1B2D"/>
<path opacity="0.5" d="M56.0272 173.213C57.3186 172.923 58.571 172.551 59.801 172.239L63.999 126.411C62.6851 126.761 56.0272 173.213 56.0272 173.213ZM18.0143 126.29L22.0944 172.142C23.3461 172.521 24.5587 172.819 25.8943 173.16C25.8943 173.16 19.2436 126.731 18.0143 126.29Z" fill="#FD5631"/>
<path d="M71.0664 82.984C71.0685 67.5953 70.6287 52.4587 69.7146 36.5367C69.6269 34.5217 68.0525 32.3848 65.946 31.4936C49.6807 24.8481 32.3365 24.8612 16.0878 31.4907C14.0357 32.329 12.4632 34.5018 12.3441 36.511C11.397 52.3821 10.9647 67.6168 10.9236 82.9232C10.942 93.9418 11.1673 104.966 11.6161 116.139C11.7038 118.154 13.2557 120.351 15.3622 121.242C31.9905 128.223 49.8713 128.265 66.5451 121.241C68.6196 120.342 70.1921 118.169 70.3112 116.16C70.7512 105.032 71.0625 94.0631 71.0664 82.984Z" fill="#1F1B2D"/>
<path opacity="0.1" d="M66.5854 121.324C68.6599 120.425 70.2324 118.253 70.3515 116.243C70.8363 104.994 71.0861 94.0035 71.1291 83.0069C71.1312 67.6181 70.6914 52.4816 69.7773 36.5596C69.6896 34.5446 68.1152 32.4077 66.0087 31.5165C57.9068 28.2048 49.4681 26.5507 41.1062 26.5658L41.0426 126.54C49.6113 126.531 58.2485 124.836 66.5854 121.324Z" fill="white"/>
<path d="M14.4769 78.0362C14.4834 70.5148 14.8644 62.9223 15.6315 54.8525C15.8121 52.8652 17.7028 51.1484 20.3081 50.5082C33.8766 47.1595 48.1578 47.1439 61.7429 50.5042C64.3527 51.1651 66.2293 52.8631 66.4008 54.8397C67.1652 62.9108 67.55 70.5039 67.5435 78.0253C67.5556 83.4331 67.3609 88.8352 66.9255 94.6983C66.8064 96.7075 64.9157 98.4244 62.288 99.1249C48.3615 102.687 33.6668 102.692 19.7576 99.0786C17.1479 98.4177 15.2937 96.6593 15.1222 94.6827C14.6689 88.775 14.5114 83.3836 14.4769 78.0362Z" fill="url(#paint3_linear_5762_39203)"/>
<path d="M63.4302 99.0546L69.8749 125.028C70.1534 126.154 71.2931 126.836 72.5006 126.584C73.6467 126.31 74.3407 125.191 74.0846 124.005L67.7289 98.5421C67.7123 98.3994 67.6566 98.1742 67.6399 98.0315L67.7249 51.2779C67.7473 51.2175 67.7082 51.1351 67.7306 51.0747L69.8309 26.6565C69.927 25.4598 69.0447 24.4598 67.8877 24.3875C66.6693 24.2932 65.6513 25.1597 65.5776 26.2961L63.494 50.8571C63.4716 50.9175 63.5106 50.9999 63.4882 51.0602L63.4641 98.588C63.4193 98.7087 63.4135 98.9119 63.4302 99.0546ZM18.5991 50.9901L16.5076 26.2335C16.3744 25.0914 15.3859 24.1902 14.1617 24.299C12.9989 24.4298 12.0814 25.4008 12.1922 26.6032L14.2504 51.0743C14.228 51.1347 14.2671 51.2171 14.2447 51.2774L14.2436 97.9927C14.2603 98.1354 14.193 98.3165 14.1873 98.5197L7.87721 123.961C7.59676 125.092 8.28888 126.229 9.44008 126.504C10.5913 126.78 11.7489 126.1 12.0293 124.969L18.4572 99.0228C18.5244 98.8417 18.5078 98.6989 18.5135 98.4958L18.5319 51.1712C18.6158 51.1328 18.5767 51.0504 18.5991 50.9901Z" fill="#FD5631"/>
<path d="M41.0202 2.59381C44.7875 2.57497 48.5266 2.81964 52.3215 3.28944C52.858 3.34479 53.2832 2.94986 53.2557 2.46121C53.2672 2.05496 52.9266 1.65939 52.5129 1.64806C48.6342 1.21662 44.8336 0.949941 41.0663 0.968775C37.2375 0.965599 33.4644 1.18756 29.6016 1.65101C29.1656 1.70006 28.8244 2.05664 28.8743 2.48491C28.9018 2.97355 29.3039 3.39113 29.8238 3.30372C33.5412 2.85662 37.3143 2.63465 41.0202 2.59381Z" fill="white"/>
<path d="M71.1051 169.3C72.5551 168.023 73.1905 165.767 73.1515 163.271L61.5213 171.341C61.3304 171.48 61.1781 171.701 61.0871 171.945C60.7457 172.858 61.6444 173.798 62.6076 173.451C65.9562 172.297 68.8757 170.99 71.1051 169.3ZM19.1866 173.668C20.1062 173.995 21.0676 173.096 20.7277 172.148C20.6734 171.921 20.4737 171.713 20.2512 171.565L8.77411 163.624C8.72901 166.159 9.35642 168.382 10.7613 169.639C12.9177 171.302 15.8534 172.552 19.1866 173.668Z" fill="url(#paint4_linear_5762_39203)"/>
<path fill-rule="evenodd" clip-rule="evenodd" d="M65.7865 88.6089C65.9571 85.089 66.0573 81.6036 66.0534 78.1074C66.0266 70.3005 65.6866 62.5866 64.9446 54.4551C64.8505 53.3955 63.5771 52.3238 61.8503 51.9107C55.0884 50.2415 48.0967 49.3793 41.1434 49.3516L41.1434 49.424C34.1248 49.4181 27.1048 50.2632 20.3314 51.9535C18.5816 52.3528 17.3286 53.4773 17.2159 54.5313C16.4488 62.6011 16.0844 70.3363 16.0273 78.1816C16.0337 83.7925 16.2469 89.4091 16.6444 95.0917C16.6771 96.1293 18.012 97.223 19.7388 97.6362C33.5865 101.227 48.488 101.229 62.353 97.6441C64.1253 97.1844 65.3559 96.1203 65.4686 95.0663C65.5851 92.8991 65.6952 90.7494 65.7865 88.6089Z" fill="url(#paint5_linear_5762_39203)"/>
<defs>
<linearGradient id="paint0_linear_5762_39203" x1="4.89844" y1="178.006" x2="146.802" y2="61.0032" gradientUnits="userSpaceOnUse">
<stop stop-color="#5D3CF2"/>
<stop offset="1" stop-color="#FD5631"/>
</linearGradient>
<linearGradient id="paint1_linear_5762_39203" x1="40.9444" y1="174.324" x2="40.9415" y2="179.477" gradientUnits="userSpaceOnUse">
<stop stop-color="white"/>
<stop offset="1" stop-color="#628E93"/>
</linearGradient>
<linearGradient id="paint2_linear_5762_39203" x1="40.9557" y1="149.765" x2="41.0262" y2="24.2624" gradientUnits="userSpaceOnUse">
<stop stop-color="#151515"/>
<stop offset="1"/>
</linearGradient>
<linearGradient id="paint3_linear_5762_39203" x1="40.9775" y1="111.538" x2="41.0128" y2="48.671" gradientUnits="userSpaceOnUse">
<stop stop-color="#151515"/>
<stop offset="1"/>
</linearGradient>
<linearGradient id="paint4_linear_5762_39203" x1="40.9355" y1="167.272" x2="40.9946" y2="178.746" gradientUnits="userSpaceOnUse">
<stop stop-color="white"/>
<stop offset="1" stop-color="#628E93"/>
</linearGradient>
<linearGradient id="paint5_linear_5762_39203" x1="16.0273" y1="100.331" x2="49.225" y2="34.1545" gradientUnits="userSpaceOnUse">
<stop stop-color="#5D3CF2"/>
<stop offset="1" stop-color="#FD5631"/>
</linearGradient>
</defs>
</svg>
