<svg width="2" height="346" viewBox="0 0 2 346" fill="none" xmlns="http://www.w3.org/2000/svg">
<path opacity="0.15" fill-rule="evenodd" clip-rule="evenodd" d="M2 0L2 10.5566L-1.45589e-05 10.5566L-1.50204e-05 8.74234e-08L2 0ZM2 25.1583L2 44.1009L-1.30927e-05 44.1009L-1.39207e-05 25.1583L2 25.1583ZM2 58.7026L2 77.6453L-1.16264e-05 77.6453L-1.24544e-05 58.7026L2 58.7026ZM2 92.2469L2 111.19L-1.01601e-05 111.19L-1.09881e-05 92.2469L2 92.2469ZM2.00001 125.791L2.00001 144.734L-8.69385e-06 144.734L-9.52186e-06 125.791L2.00001 125.791ZM2.00001 159.336L2.00001 178.278L-7.22758e-06 178.278L-8.05559e-06 159.336L2.00001 159.336ZM2.00001 192.88L2.00001 211.823L-5.76131e-06 211.823L-6.58932e-06 192.88L2.00001 192.88ZM2.00001 226.424L2.00001 245.367L-4.29504e-06 245.367L-5.12305e-06 226.424L2.00001 226.424ZM2.00001 259.969L2.00001 278.911L-2.82877e-06 278.911L-3.65678e-06 259.969L2.00001 259.969ZM2.00001 293.513L2.00001 312.456L-1.3625e-06 312.456L-2.19051e-06 293.513L2.00001 293.513ZM2.00001 327.057L2.00002 346L1.0377e-07 346L-7.24241e-07 327.057L2.00001 327.057Z" fill="white"/>
</svg>
